<?xml version="1.0" encoding="UTF-8" standalone="no"?>
<!-- Created with Inkscape (http://www.inkscape.org/) -->

<svg
   xmlns:ns0="http://www.iki.fi/pav/software/textext/"
   xmlns:dc="http://purl.org/dc/elements/1.1/"
   xmlns:cc="http://creativecommons.org/ns#"
   xmlns:rdf="http://www.w3.org/1999/02/22-rdf-syntax-ns#"
   xmlns:svg="http://www.w3.org/2000/svg"
   xmlns="http://www.w3.org/2000/svg"
   xmlns:xlink="http://www.w3.org/1999/xlink"
   xmlns:sodipodi="http://sodipodi.sourceforge.net/DTD/sodipodi-0.dtd"
   xmlns:inkscape="http://www.inkscape.org/namespaces/inkscape"
   width="210mm"
   height="297mm"
   id="svg2"
   version="1.1"
   inkscape:version="0.48.4 r9939"
   sodipodi:docname="geometría_epipolar.eps"
   inkscape:export-filename="/home/sun/Documentos/Proyecto/Materia Proyecto/Hito 2/geometría_epipolar.png"
   inkscape:export-xdpi="102"
   inkscape:export-ydpi="102">
  <sodipodi:namedview
     id="base"
     pagecolor="#ffffff"
     bordercolor="#666666"
     borderopacity="1.0"
     inkscape:pageopacity="0.0"
     inkscape:pageshadow="2"
     inkscape:zoom="1.4142136"
     inkscape:cx="226.10344"
     inkscape:cy="867.72082"
     inkscape:document-units="px"
     inkscape:current-layer="layer1"
     showgrid="false"
     inkscape:window-width="1920"
     inkscape:window-height="1053"
     inkscape:window-x="0"
     inkscape:window-y="2"
     inkscape:window-maximized="1" />
  <defs
     id="defs4" />
  <metadata
     id="metadata7">
    <rdf:RDF>
      <cc:Work
         rdf:about="">
        <dc:format>image/svg+xml</dc:format>
        <dc:type
           rdf:resource="http://purl.org/dc/dcmitype/StillImage" />
        <dc:title></dc:title>
      </cc:Work>
    </rdf:RDF>
  </metadata>
  <g
     id="layer1"
     inkscape:groupmode="layer"
     inkscape:label="Capa 1">
    <path
       transform="matrix(0.48981459,0,0,0.48981459,329.94616,181.26619)"
       sodipodi:end="11.365047"
       sodipodi:start="5.0974333"
       d="m 105.71771,57.066287 a 5.7142859,5.7142859 0 1 1 -0.0827,-0.03278 l -2.06356,5.328674 z"
       sodipodi:ry="5.7142859"
       sodipodi:rx="5.7142859"
       sodipodi:cy="62.362183"
       sodipodi:cx="103.57143"
       id="path3842-3-41"
       style="fill:#000000;fill-opacity:1;stroke:#000000;stroke-width:1;stroke-miterlimit:4;stroke-opacity:1;stroke-dasharray:none;stroke-dashoffset:0"
       sodipodi:type="arc" />
    <path
       transform="matrix(0.48981459,0,0,0.48981459,46.098001,291.92822)"
       sodipodi:end="11.365047"
       sodipodi:start="5.0974333"
       d="m 105.71771,57.066287 a 5.7142859,5.7142859 0 1 1 -0.0827,-0.03278 l -2.06356,5.328674 z"
       sodipodi:ry="5.7142859"
       sodipodi:rx="5.7142859"
       sodipodi:cy="62.362183"
       sodipodi:cx="103.57143"
       id="path3842"
       style="fill:#000000;fill-opacity:1;stroke:#000000;stroke-width:1;stroke-miterlimit:4;stroke-opacity:1;stroke-dasharray:none;stroke-dashoffset:0"
       sodipodi:type="arc" />
    <path
       sodipodi:nodetypes="cccc"
       inkscape:connector-curvature="0"
       id="path3902"
       d="M 94.541543,323.14268 C 122.52849,312.26692 144.97266,303.5451 162.97178,296.55062 m 0,0 c 72.88315,-28.32247 72.88315,-28.32247 72.88315,-28.32247"
       style="fill:none;stroke:#000000;stroke-width:1;stroke-linecap:butt;stroke-linejoin:miter;stroke-opacity:1;stroke-miterlimit:4;stroke-dasharray:none" />
    <path
       inkscape:connector-curvature="0"
       id="path3759-89"
       d="M 320.49689,382.18553 C 178.18864,300.68369 178.18864,300.68369 178.18864,300.68369"
       style="fill:none;stroke:#000000;stroke-width:0.71524072px;stroke-linecap:butt;stroke-linejoin:miter;stroke-opacity:1" />
    <path
       inkscape:connector-curvature="0"
       id="path3761-5"
       d="m 319.70604,249.92327 c 0.46101,132.30003 0.46101,132.30003 0.46101,132.30003"
       style="fill:none;stroke:#000000;stroke-width:0.71524072px;stroke-linecap:butt;stroke-linejoin:miter;stroke-opacity:1" />
    <path
       inkscape:connector-curvature="0"
       id="path3759-8-2"
       d="m 177.70291,168.31292 c 142.30825,81.50185 142.30825,81.50185 142.30825,81.50185"
       style="fill:none;stroke:#000000;stroke-width:0.71524072px;stroke-linecap:butt;stroke-linejoin:miter;stroke-opacity:1" />
    <path
       inkscape:connector-curvature="0"
       id="path3761-9-9"
       d="M 178.49376,300.57519 C 178.03275,168.27515 178.03275,168.27515 178.03275,168.27515"
       style="fill:none;stroke:#000000;stroke-width:0.71524072px;stroke-linecap:butt;stroke-linejoin:miter;stroke-opacity:1" />
    <path
       inkscape:connector-curvature="0"
       id="path3864"
       d="m 95.714286,322.36218 c 186.428574,0 186.428574,0 186.428574,0"
       style="fill:none;stroke:#000000;stroke-width:1;stroke-linecap:butt;stroke-linejoin:miter;stroke-opacity:1;stroke-miterlimit:4;stroke-dasharray:none" />
    <path
       inkscape:connector-curvature="0"
       id="path3866"
       d="m 285.29615,322.36218 c 196.12768,0 196.12768,0 196.12768,0"
       style="fill:none;stroke:#000000;stroke-width:1;stroke-linecap:butt;stroke-linejoin:miter;stroke-miterlimit:4;stroke-opacity:1;stroke-dasharray:4,4;stroke-dashoffset:0" />
    <path
       transform="matrix(0.48981459,0,0,0.48981459,232.12635,291.81625)"
       sodipodi:end="11.365047"
       sodipodi:start="5.0974333"
       d="m 105.71771,57.066287 a 5.7142859,5.7142859 0 1 1 -0.0827,-0.03278 l -2.06356,5.328674 z"
       sodipodi:ry="5.7142859"
       sodipodi:rx="5.7142859"
       sodipodi:cy="62.362183"
       sodipodi:cx="103.57143"
       id="path3842-3-4"
       style="fill:#000000;fill-opacity:1;stroke:#000000;stroke-width:1;stroke-miterlimit:4;stroke-opacity:1;stroke-dasharray:none;stroke-dashoffset:0"
       sodipodi:type="arc" />
    <path
       sodipodi:nodetypes="cccc"
       inkscape:connector-curvature="0"
       id="path3902-8"
       d="m 236.67044,267.89847 c 13.50565,-5.24831 24.33652,-9.4572 33.02235,-12.83252 m 0,0 c 35.17119,-13.66756 35.17119,-13.66756 35.17119,-13.66756"
       style="fill:none;stroke:#000000;stroke-width:1;stroke-linecap:butt;stroke-linejoin:miter;stroke-opacity:1;stroke-miterlimit:4;stroke-dasharray:6,6;stroke-dashoffset:0" />
    <path
       transform="matrix(0.48981459,0,0,0.48981459,186.49166,237.35878)"
       sodipodi:end="11.365047"
       sodipodi:start="5.0974333"
       d="m 105.71771,57.066287 a 5.7142859,5.7142859 0 1 1 -0.0827,-0.03278 l -2.06356,5.328674 z"
       sodipodi:ry="5.7142859"
       sodipodi:rx="5.7142859"
       sodipodi:cy="62.362183"
       sodipodi:cx="103.57143"
       id="path3842-3-41-7"
       style="fill:#000000;fill-opacity:1;stroke:#000000;stroke-width:1;stroke-miterlimit:4;stroke-opacity:1;stroke-dasharray:none;stroke-dashoffset:0"
       sodipodi:type="arc" />
    <path
       transform="matrix(-0.48981459,0,0,0.48981459,715.51881,291.93083)"
       sodipodi:end="11.365047"
       sodipodi:start="5.0974333"
       d="m 105.71771,57.066287 a 5.7142859,5.7142859 0 1 1 -0.0827,-0.03278 l -2.06356,5.328674 z"
       sodipodi:ry="5.7142859"
       sodipodi:rx="5.7142859"
       sodipodi:cy="62.362183"
       sodipodi:cx="103.57143"
       id="path3842-5"
       style="fill:#000000;fill-opacity:1;stroke:#000000;stroke-width:1;stroke-miterlimit:4;stroke-opacity:1;stroke-dasharray:none;stroke-dashoffset:0"
       sodipodi:type="arc" />
    <path
       sodipodi:nodetypes="cccc"
       inkscape:connector-curvature="0"
       id="path3902-7"
       d="m 667.07527,323.14529 c -27.98695,-10.87576 -50.43112,-19.59758 -68.43024,-26.59206 m 0,0 c -72.88315,-28.32247 -72.88315,-28.32247 -72.88315,-28.32247"
       style="fill:none;stroke:#000000;stroke-width:1;stroke-linecap:butt;stroke-linejoin:miter;stroke-opacity:1;stroke-miterlimit:4;stroke-dasharray:none" />
    <g
       transform="matrix(0.62065901,-0.35545975,0.35545975,0.62065901,326.73318,323.29411)"
       id="g3788-5-6">
      <path
         style="fill:none;stroke:#000000;stroke-width:1px;stroke-linecap:butt;stroke-linejoin:miter;stroke-opacity:1"
         d="m 97.857143,150.93361 c 229.285717,0 229.285717,0 229.285717,0"
         id="path3759-89-8"
         inkscape:connector-curvature="0" />
      <path
         style="fill:none;stroke:#000000;stroke-width:1px;stroke-linecap:butt;stroke-linejoin:miter;stroke-opacity:1"
         d="M 190.718,-8.9834492 C 98.23107,151.20862 98.23107,151.20862 98.23107,151.20862"
         id="path3761-5-5"
         inkscape:connector-curvature="0" />
      <g
         id="g3784-8-3"
         transform="matrix(-1,0,0,-1,699.02555,304.63255)">
        <path
           inkscape:connector-curvature="0"
           id="path3759-8-2-7"
           d="m 279.31663,313.95965 c 229.28572,0 229.28572,0 229.28572,0"
           style="fill:none;stroke:#000000;stroke-width:1px;stroke-linecap:butt;stroke-linejoin:miter;stroke-opacity:1" />
        <path
           inkscape:connector-curvature="0"
           id="path3761-9-9-0"
           d="M 372.17749,154.04259 C 279.69056,314.23466 279.69056,314.23466 279.69056,314.23466"
           style="fill:none;stroke:#000000;stroke-width:1px;stroke-linecap:butt;stroke-linejoin:miter;stroke-opacity:1" />
      </g>
    </g>
    <path
       inkscape:connector-curvature="0"
       id="path3864-7"
       d="m 665.90252,322.36479 c -186.42857,0 -186.42857,0 -186.42857,0"
       style="fill:none;stroke:#000000;stroke-width:1px;stroke-linecap:butt;stroke-linejoin:miter;stroke-opacity:1" />
    <path
       transform="matrix(-0.48981459,0,0,0.48981459,529.49046,291.81886)"
       sodipodi:end="11.365047"
       sodipodi:start="5.0974333"
       d="m 105.71771,57.066287 a 5.7142859,5.7142859 0 1 1 -0.0827,-0.03278 l -2.06356,5.328674 z"
       sodipodi:ry="5.7142859"
       sodipodi:rx="5.7142859"
       sodipodi:cy="62.362183"
       sodipodi:cx="103.57143"
       id="path3842-3-4-3"
       style="fill:#000000;fill-opacity:1;stroke:#000000;stroke-width:1;stroke-miterlimit:4;stroke-opacity:1;stroke-dasharray:none;stroke-dashoffset:0"
       sodipodi:type="arc" />
    <path
       sodipodi:nodetypes="cccc"
       inkscape:connector-curvature="0"
       id="path3902-8-1"
       d="m 524.94737,267.90208 c -13.39176,-5.20405 -24.13131,-9.37745 -32.7439,-12.72431 m 0,0 c -34.87463,-13.55232 -34.87463,-13.55232 -34.87463,-13.55232"
       style="fill:none;stroke:#000000;stroke-width:1;stroke-linecap:butt;stroke-linejoin:miter;stroke-opacity:1;stroke-miterlimit:4;stroke-dasharray:4,4;stroke-dashoffset:0" />
    <path
       transform="matrix(-0.48981459,0,0,0.48981459,575.12515,237.36139)"
       sodipodi:end="11.365047"
       sodipodi:start="5.0974333"
       d="m 105.71771,57.066287 a 5.7142859,5.7142859 0 1 1 -0.0827,-0.03278 l -2.06356,5.328674 z"
       sodipodi:ry="5.7142859"
       sodipodi:rx="5.7142859"
       sodipodi:cy="62.362183"
       sodipodi:cx="103.57143"
       id="path3842-3-41-7-1"
       style="fill:#000000;fill-opacity:1;stroke:#000000;stroke-width:1;stroke-miterlimit:4;stroke-opacity:1;stroke-dasharray:none;stroke-dashoffset:0"
       sodipodi:type="arc" />
    <path
       sodipodi:nodetypes="cccc"
       inkscape:connector-curvature="0"
       id="path3902-8-3"
       d="m 305.1519,241.28831 c 15.11287,-5.87288 27.23265,-10.58264 36.95212,-14.35963 m 0,0 c 39.35667,-15.29405 39.35667,-15.29405 39.35667,-15.29405"
       style="fill:none;stroke:#000000;stroke-width:1;stroke-linecap:butt;stroke-linejoin:miter;stroke-opacity:1;stroke-miterlimit:4;stroke-dasharray:none" />
    <path
       sodipodi:nodetypes="cccc"
       inkscape:connector-curvature="0"
       id="path3902-8-1-8"
       d="m 457.28923,241.48046 c -15.66138,-6.08603 -28.22106,-10.96673 -38.2933,-14.88082 m 0,0 c -40.78515,-15.84915 -40.78515,-15.84915 -40.78515,-15.84915"
       style="fill:none;stroke:#000000;stroke-width:1;stroke-linecap:butt;stroke-linejoin:miter;stroke-opacity:1;stroke-miterlimit:4;stroke-dasharray:none" />
    <path
       inkscape:connector-curvature="0"
       id="path4236"
       d="M 456.79098,348.79094 C 569.22096,213.02643 569.22096,213.02643 569.22096,213.02643"
       style="fill:none;stroke:#005f00;stroke-width:2;stroke-linecap:butt;stroke-linejoin:miter;stroke-opacity:0.54330707;stroke-miterlimit:4;stroke-dasharray:none" />
    <g
       id="g4270"
       ns0:preamble=""
       ns0:text="\\(X\\)"
       transform="matrix(2.0379549,0,0,2.0379549,-82.988519,-71.997739)">
      <defs
         id="defs4272">
        <g
           id="g4274">
          <symbol
             id="textext-1cb38697-0"
             overflow="visible"
             style="overflow:visible">
            <path
               id="path4277"
               d=""
               style="stroke:none"
               inkscape:connector-curvature="0" />
          </symbol>
          <symbol
             id="textext-1cb38697-1"
             overflow="visible"
             style="overflow:visible">
            <path
               id="path4280"
               d="M 4.828125,-4.09375 4,-6.078125 c -0.03125,-0.078125 -0.046875,-0.125 -0.046875,-0.125 0,-0.0625 0.15625,-0.25 0.578125,-0.296875 0.109375,-0.015625 0.203125,-0.015625 0.203125,-0.1875 0,-0.125 -0.125,-0.125 -0.15625,-0.125 -0.40625,0 -0.828125,0.03125 -1.25,0.03125 -0.25,0 -0.859375,-0.03125 -1.109375,-0.03125 -0.0625,0 -0.1875,0 -0.1875,0.203125 C 2.03125,-6.5 2.140625,-6.5 2.265625,-6.5 c 0.59375,0 0.65625,0.09375 0.75,0.3125 l 1.171875,2.78125 -2.109375,2.265625 -0.125,0.109375 C 1.46875,-0.5 1,-0.34375 0.484375,-0.3125 c -0.125,0.015625 -0.21875,0.015625 -0.21875,0.203125 0,0.015625 0,0.109375 0.140625,0.109375 0.296875,0 0.625,-0.03125 0.921875,-0.03125 C 1.703125,-0.03125 2.09375,0 2.453125,0 2.515625,0 2.625,0 2.625,-0.203125 2.625,-0.296875 2.53125,-0.3125 2.515625,-0.3125 c -0.09375,0 -0.40625,-0.03125 -0.40625,-0.3125 0,-0.15625 0.15625,-0.3125 0.265625,-0.4375 L 3.40625,-2.140625 4.296875,-3.125 l 1,2.390625 c 0.046875,0.109375 0.0625,0.109375 0.0625,0.140625 0,0.078125 -0.203125,0.25 -0.578125,0.28125 C 4.671875,-0.296875 4.578125,-0.296875 4.578125,-0.125 4.578125,0 4.6875,0 4.71875,0 5,0 5.703125,-0.03125 5.984375,-0.03125 6.234375,-0.03125 6.84375,0 7.09375,0 c 0.0625,0 0.1875,0 0.1875,-0.1875 0,-0.125 -0.109375,-0.125 -0.1875,-0.125 -0.65625,0 -0.6875,-0.03125 -0.859375,-0.4375 C 5.859375,-1.671875 5.1875,-3.234375 4.953125,-3.828125 5.625,-4.53125 6.671875,-5.71875 7,-5.984375 7.28125,-6.234375 7.671875,-6.46875 8.265625,-6.5 c 0.125,-0.015625 0.21875,-0.015625 0.21875,-0.203125 0,0 0,-0.109375 -0.125,-0.109375 -0.296875,0 -0.640625,0.03125 -0.9375,0.03125 -0.375,0 -0.75,-0.03125 -1.109375,-0.03125 -0.0625,0 -0.1875,0 -0.1875,0.203125 0,0.0625 0.046875,0.09375 0.109375,0.109375 0.09375,0.015625 0.40625,0.03125 0.40625,0.3125 0,0.140625 -0.109375,0.265625 -0.1875,0.359375 z"
               style="stroke:none"
               inkscape:connector-curvature="0" />
          </symbol>
        </g>
      </defs>
      <g
         id="textext-1cb38697-2">
        <g
           id="g4283"
           style="fill:#000000;fill-opacity:1">
          <use
             id="use4285"
             y="134.765"
             x="223.43201"
             xlink:href="#textext-1cb38697-1"
             width="744.09448"
             height="1052.3622" />
        </g>
      </g>
    </g>
    <g
       ns0:text="$x\'$"
       ns0:preamble=""
       transform="matrix(2.0379549,0,0,2.0379549,67.483896,13.205479)"
       id="g4707">
      <defs
         id="defs4709">
        <g
           id="g4711">
          <symbol
             style="overflow:visible"
             overflow="visible"
             id="textext-83d06c65-0">
            <path
               inkscape:connector-curvature="0"
               style="stroke:none"
               d=""
               id="path4714" />
          </symbol>
          <symbol
             style="overflow:visible"
             overflow="visible"
             id="textext-83d06c65-1">
            <path
               inkscape:connector-curvature="0"
               style="stroke:none"
               d="M 3.328125,-3.015625 C 3.390625,-3.265625 3.625,-4.1875 4.3125,-4.1875 c 0.046875,0 0.296875,0 0.5,0.125 C 4.53125,-4 4.34375,-3.765625 4.34375,-3.515625 c 0,0.15625 0.109375,0.34375 0.375,0.34375 0.21875,0 0.53125,-0.171875 0.53125,-0.578125 0,-0.515625 -0.578125,-0.65625 -0.921875,-0.65625 -0.578125,0 -0.921875,0.53125 -1.046875,0.75 -0.25,-0.65625 -0.78125,-0.75 -1.078125,-0.75 -1.03125,0 -1.609375,1.28125 -1.609375,1.53125 0,0.109375 0.109375,0.109375 0.125,0.109375 0.078125,0 0.109375,-0.03125 0.125,-0.109375 0.34375,-1.0625 1,-1.3125 1.34375,-1.3125 0.1875,0 0.53125,0.09375 0.53125,0.671875 0,0.3125 -0.171875,0.96875 -0.53125,2.375 -0.15625,0.609375 -0.515625,1.03125 -0.953125,1.03125 -0.0625,0 -0.28125,0 -0.5,-0.125 0.25,-0.0625 0.46875,-0.265625 0.46875,-0.546875 0,-0.265625 -0.21875,-0.34375 -0.359375,-0.34375 -0.3125,0 -0.546875,0.25 -0.546875,0.578125 0,0.453125 0.484375,0.65625 0.921875,0.65625 0.671875,0 1.03125,-0.703125 1.046875,-0.75 0.125,0.359375 0.484375,0.75 1.078125,0.75 1.03125,0 1.59375,-1.28125 1.59375,-1.53125 0,-0.109375 -0.078125,-0.109375 -0.109375,-0.109375 -0.09375,0 -0.109375,0.046875 -0.140625,0.109375 -0.328125,1.078125 -1,1.3125 -1.3125,1.3125 -0.390625,0 -0.546875,-0.3125 -0.546875,-0.65625 0,-0.21875 0.046875,-0.4375 0.15625,-0.875 z"
               id="path4717" />
          </symbol>
          <symbol
             style="overflow:visible"
             overflow="visible"
             id="textext-83d06c65-2">
            <path
               inkscape:connector-curvature="0"
               style="stroke:none"
               d=""
               id="path4720" />
          </symbol>
          <symbol
             style="overflow:visible"
             overflow="visible"
             id="textext-83d06c65-3">
            <path
               inkscape:connector-curvature="0"
               style="stroke:none"
               d="m 2.015625,-3.296875 c 0.0625,-0.109375 0.0625,-0.171875 0.0625,-0.21875 0,-0.21875 -0.1875,-0.375 -0.40625,-0.375 -0.265625,0 -0.34375,0.21875 -0.375,0.328125 L 0.375,-0.546875 c -0.015625,0.015625 -0.046875,0.09375 -0.046875,0.109375 0,0.078125 0.21875,0.15625 0.28125,0.15625 0.046875,0 0.046875,-0.015625 0.09375,-0.125 z"
               id="path4723" />
          </symbol>
        </g>
      </defs>
      <g
         id="textext-83d06c65-4">
        <g
           style="fill:#000000;fill-opacity:1"
           id="g4726">
          <use
             height="1052.3622"
             width="744.09448"
             xlink:href="#textext-83d06c65-1"
             x="223.43201"
             y="134.765"
             id="use4728" />
        </g>
        <g
           style="fill:#000000;fill-opacity:1"
           id="g4730">
          <use
             height="1052.3622"
             width="744.09448"
             xlink:href="#textext-83d06c65-3"
             x="229.12601"
             y="131.14999"
             id="use4732" />
        </g>
      </g>
    </g>
    <g
       ns0:text="\\(e\\)"
       ns0:preamble=""
       transform="matrix(2.0379549,0,0,2.0379549,-171.08271,65.08933)"
       id="g5090">
      <defs
         id="defs5092">
        <g
           id="g5094">
          <symbol
             style="overflow:visible"
             overflow="visible"
             id="textext-5239f055-0">
            <path
               inkscape:connector-curvature="0"
               style="stroke:none"
               d=""
               id="path5097" />
          </symbol>
          <symbol
             style="overflow:visible"
             overflow="visible"
             id="textext-5239f055-1">
            <path
               inkscape:connector-curvature="0"
               style="stroke:none"
               d="m 1.859375,-2.296875 c 0.296875,0 1.03125,-0.03125 1.53125,-0.234375 0.703125,-0.296875 0.75,-0.890625 0.75,-1.03125 0,-0.4375 -0.375,-0.84375 -1.0625,-0.84375 -1.109375,0 -2.625,0.96875 -2.625,2.71875 0,1.015625 0.59375,1.796875 1.578125,1.796875 1.421875,0 2.25,-1.0625 2.25,-1.171875 0,-0.0625 -0.046875,-0.140625 -0.109375,-0.140625 -0.0625,0 -0.078125,0.03125 -0.140625,0.109375 -0.78125,0.984375 -1.875,0.984375 -1.984375,0.984375 -0.78125,0 -0.875,-0.84375 -0.875,-1.15625 0,-0.125 0.015625,-0.421875 0.15625,-1.03125 z m -0.46875,-0.21875 C 1.78125,-4.03125 2.8125,-4.1875 3.078125,-4.1875 c 0.453125,0 0.734375,0.296875 0.734375,0.625 0,1.046875 -1.59375,1.046875 -2.015625,1.046875 z"
               id="path5100" />
          </symbol>
        </g>
      </defs>
      <g
         id="textext-5239f055-2">
        <g
           style="fill:#000000;fill-opacity:1"
           id="g5103">
          <use
             height="1052.3622"
             width="744.09448"
             xlink:href="#textext-5239f055-1"
             x="223.43201"
             y="134.765"
             id="use5105" />
        </g>
      </g>
    </g>
    <g
       id="g5306"
       transform="matrix(2.0379549,0,0,2.0379549,22.07825,70.039077)"
       ns0:preamble=""
       ns0:text="\\(e\'\\)">
      <defs
         id="defs5308">
        <g
           id="g5310">
          <symbol
             id="textext-5a99b7fd-0"
             overflow="visible"
             style="overflow:visible">
            <path
               id="path5313"
               d=""
               style="stroke:none"
               inkscape:connector-curvature="0" />
          </symbol>
          <symbol
             id="textext-5a99b7fd-1"
             overflow="visible"
             style="overflow:visible">
            <path
               id="path5316"
               d="m 1.859375,-2.296875 c 0.296875,0 1.03125,-0.03125 1.53125,-0.234375 0.703125,-0.296875 0.75,-0.890625 0.75,-1.03125 0,-0.4375 -0.375,-0.84375 -1.0625,-0.84375 -1.109375,0 -2.625,0.96875 -2.625,2.71875 0,1.015625 0.59375,1.796875 1.578125,1.796875 1.421875,0 2.25,-1.0625 2.25,-1.171875 0,-0.0625 -0.046875,-0.140625 -0.109375,-0.140625 -0.0625,0 -0.078125,0.03125 -0.140625,0.109375 -0.78125,0.984375 -1.875,0.984375 -1.984375,0.984375 -0.78125,0 -0.875,-0.84375 -0.875,-1.15625 0,-0.125 0.015625,-0.421875 0.15625,-1.03125 z m -0.46875,-0.21875 C 1.78125,-4.03125 2.8125,-4.1875 3.078125,-4.1875 c 0.453125,0 0.734375,0.296875 0.734375,0.625 0,1.046875 -1.59375,1.046875 -2.015625,1.046875 z"
               style="stroke:none"
               inkscape:connector-curvature="0" />
          </symbol>
          <symbol
             id="textext-5a99b7fd-2"
             overflow="visible"
             style="overflow:visible">
            <path
               id="path5319"
               d=""
               style="stroke:none"
               inkscape:connector-curvature="0" />
          </symbol>
          <symbol
             id="textext-5a99b7fd-3"
             overflow="visible"
             style="overflow:visible">
            <path
               id="path5322"
               d="m 2.015625,-3.296875 c 0.0625,-0.109375 0.0625,-0.171875 0.0625,-0.21875 0,-0.21875 -0.1875,-0.375 -0.40625,-0.375 -0.265625,0 -0.34375,0.21875 -0.375,0.328125 L 0.375,-0.546875 c -0.015625,0.015625 -0.046875,0.09375 -0.046875,0.109375 0,0.078125 0.21875,0.15625 0.28125,0.15625 0.046875,0 0.046875,-0.015625 0.09375,-0.125 z"
               style="stroke:none"
               inkscape:connector-curvature="0" />
          </symbol>
        </g>
      </defs>
      <g
         id="textext-5a99b7fd-4">
        <g
           id="g5325"
           style="fill:#000000;fill-opacity:1">
          <use
             id="use5327"
             y="134.765"
             x="223.43201"
             xlink:href="#textext-5a99b7fd-1"
             width="744.09448"
             height="1052.3622" />
        </g>
        <g
           id="g5329"
           style="fill:#000000;fill-opacity:1">
          <use
             id="use5331"
             y="131.14999"
             x="228.071"
             xlink:href="#textext-5a99b7fd-3"
             width="744.09448"
             height="1052.3622" />
        </g>
      </g>
    </g>
    <g
       id="g5824"
       transform="matrix(2.0379549,0,0,2.0379549,-218.20043,8.850562)"
       ns0:preamble=""
       ns0:text="$x$">
      <defs
         id="defs5826">
        <g
           id="g5828">
          <symbol
             id="textext-856d2dce-0"
             overflow="visible"
             style="overflow:visible">
            <path
               id="path5831"
               d=""
               style="stroke:none"
               inkscape:connector-curvature="0" />
          </symbol>
          <symbol
             id="textext-856d2dce-1"
             overflow="visible"
             style="overflow:visible">
            <path
               id="path5834"
               d="M 3.328125,-3.015625 C 3.390625,-3.265625 3.625,-4.1875 4.3125,-4.1875 c 0.046875,0 0.296875,0 0.5,0.125 C 4.53125,-4 4.34375,-3.765625 4.34375,-3.515625 c 0,0.15625 0.109375,0.34375 0.375,0.34375 0.21875,0 0.53125,-0.171875 0.53125,-0.578125 0,-0.515625 -0.578125,-0.65625 -0.921875,-0.65625 -0.578125,0 -0.921875,0.53125 -1.046875,0.75 -0.25,-0.65625 -0.78125,-0.75 -1.078125,-0.75 -1.03125,0 -1.609375,1.28125 -1.609375,1.53125 0,0.109375 0.109375,0.109375 0.125,0.109375 0.078125,0 0.109375,-0.03125 0.125,-0.109375 0.34375,-1.0625 1,-1.3125 1.34375,-1.3125 0.1875,0 0.53125,0.09375 0.53125,0.671875 0,0.3125 -0.171875,0.96875 -0.53125,2.375 -0.15625,0.609375 -0.515625,1.03125 -0.953125,1.03125 -0.0625,0 -0.28125,0 -0.5,-0.125 0.25,-0.0625 0.46875,-0.265625 0.46875,-0.546875 0,-0.265625 -0.21875,-0.34375 -0.359375,-0.34375 -0.3125,0 -0.546875,0.25 -0.546875,0.578125 0,0.453125 0.484375,0.65625 0.921875,0.65625 0.671875,0 1.03125,-0.703125 1.046875,-0.75 0.125,0.359375 0.484375,0.75 1.078125,0.75 1.03125,0 1.59375,-1.28125 1.59375,-1.53125 0,-0.109375 -0.078125,-0.109375 -0.109375,-0.109375 -0.09375,0 -0.109375,0.046875 -0.140625,0.109375 -0.328125,1.078125 -1,1.3125 -1.3125,1.3125 -0.390625,0 -0.546875,-0.3125 -0.546875,-0.65625 0,-0.21875 0.046875,-0.4375 0.15625,-0.875 z"
               style="stroke:none"
               inkscape:connector-curvature="0" />
          </symbol>
        </g>
      </defs>
      <g
         id="textext-856d2dce-2">
        <g
           id="g5837"
           style="fill:#000000;fill-opacity:1">
          <use
             id="use5839"
             y="134.765"
             x="223.43201"
             xlink:href="#textext-856d2dce-1"
             width="744.09448"
             height="1052.3622" />
        </g>
      </g>
    </g>
    <g
       ns0:text="$l\'$"
       ns0:preamble=""
       transform="matrix(2.0379549,0,0,2.0379549,109.19001,-34.990054)"
       id="g6090">
      <defs
         id="defs6092">
        <g
           id="g6094">
          <symbol
             style="overflow:visible"
             overflow="visible"
             id="textext-51bc7f0b-0">
            <path
               inkscape:connector-curvature="0"
               style="stroke:none"
               d=""
               id="path6097" />
          </symbol>
          <symbol
             style="overflow:visible"
             overflow="visible"
             id="textext-51bc7f0b-1">
            <path
               inkscape:connector-curvature="0"
               style="stroke:none"
               d="m 2.578125,-6.8125 c 0,0 0,-0.109375 -0.140625,-0.109375 -0.21875,0 -0.953125,0.078125 -1.21875,0.109375 -0.078125,0 -0.1875,0.015625 -0.1875,0.203125 0,0.109375 0.109375,0.109375 0.25,0.109375 0.484375,0 0.5,0.09375 0.5,0.171875 L 1.75,-6.125 0.484375,-1.140625 C 0.453125,-1.03125 0.4375,-0.96875 0.4375,-0.8125 c 0,0.578125 0.4375,0.921875 0.90625,0.921875 0.328125,0 0.578125,-0.203125 0.75,-0.5625 0.171875,-0.375 0.296875,-0.953125 0.296875,-0.96875 0,-0.109375 -0.09375,-0.109375 -0.125,-0.109375 -0.09375,0 -0.109375,0.046875 -0.125,0.1875 C 1.96875,-0.703125 1.78125,-0.109375 1.375,-0.109375 c -0.296875,0 -0.296875,-0.3125 -0.296875,-0.453125 0,-0.25 0.015625,-0.296875 0.0625,-0.484375 z"
               id="path6100" />
          </symbol>
          <symbol
             style="overflow:visible"
             overflow="visible"
             id="textext-51bc7f0b-2">
            <path
               inkscape:connector-curvature="0"
               style="stroke:none"
               d=""
               id="path6103" />
          </symbol>
          <symbol
             style="overflow:visible"
             overflow="visible"
             id="textext-51bc7f0b-3">
            <path
               inkscape:connector-curvature="0"
               style="stroke:none"
               d="m 2.015625,-3.296875 c 0.0625,-0.109375 0.0625,-0.171875 0.0625,-0.21875 0,-0.21875 -0.1875,-0.375 -0.40625,-0.375 -0.265625,0 -0.34375,0.21875 -0.375,0.328125 L 0.375,-0.546875 c -0.015625,0.015625 -0.046875,0.09375 -0.046875,0.109375 0,0.078125 0.21875,0.15625 0.28125,0.15625 0.046875,0 0.046875,-0.015625 0.09375,-0.125 z"
               id="path6106" />
          </symbol>
        </g>
      </defs>
      <g
         id="textext-51bc7f0b-4">
        <g
           style="fill:#000000;fill-opacity:1"
           id="g6109">
          <use
             height="1052.3622"
             width="744.09448"
             xlink:href="#textext-51bc7f0b-1"
             x="223.43201"
             y="134.765"
             id="use6111" />
        </g>
        <g
           style="fill:#000000;fill-opacity:1"
           id="g6113">
          <use
             height="1052.3622"
             width="744.09448"
             xlink:href="#textext-51bc7f0b-3"
             x="226.601"
             y="131.14999"
             id="use6115" />
        </g>
      </g>
    </g>
    <g
       id="g6380"
       transform="matrix(2.0379549,0,0,2.0379549,-366.67967,70.481126)"
       ns0:preamble=""
       ns0:text="\\(O_1\\)">
      <defs
         id="defs6382">
        <g
           id="g6384">
          <symbol
             id="textext-05a66567-0"
             overflow="visible"
             style="overflow:visible">
            <path
               id="path6387"
               d=""
               style="stroke:none"
               inkscape:connector-curvature="0" />
          </symbol>
          <symbol
             id="textext-05a66567-1"
             overflow="visible"
             style="overflow:visible">
            <path
               id="path6390"
               d="m 7.375,-4.34375 c 0,-1.609375 -1.0625,-2.6875 -2.546875,-2.6875 -2.140625,0 -4.34375,2.265625 -4.34375,4.59375 0,1.65625 1.125,2.65625 2.5625,2.65625 2.109375,0 4.328125,-2.1875 4.328125,-4.5625 z m -4.28125,4.296875 c -0.984375,0 -1.671875,-0.796875 -1.671875,-2.109375 0,-0.453125 0.140625,-1.90625 0.90625,-3.0625 0.6875,-1.046875 1.65625,-1.5625 2.453125,-1.5625 0.8125,0 1.703125,0.5625 1.703125,2.046875 0,0.71875 -0.265625,2.265625 -1.25,3.5 C 4.75,-0.625 3.9375,-0.046875 3.09375,-0.046875 z"
               style="stroke:none"
               inkscape:connector-curvature="0" />
          </symbol>
          <symbol
             id="textext-05a66567-2"
             overflow="visible"
             style="overflow:visible">
            <path
               id="path6393"
               d=""
               style="stroke:none"
               inkscape:connector-curvature="0" />
          </symbol>
          <symbol
             id="textext-05a66567-3"
             overflow="visible"
             style="overflow:visible">
            <path
               id="path6396"
               d="m 2.328125,-4.4375 c 0,-0.1875 0,-0.1875 -0.203125,-0.1875 -0.453125,0.4375 -1.078125,0.4375 -1.359375,0.4375 l 0,0.25 c 0.15625,0 0.625,0 1,-0.1875 l 0,3.546875 c 0,0.234375 0,0.328125 -0.6875,0.328125 l -0.265625,0 0,0.25 c 0.125,0 0.984375,-0.03125 1.234375,-0.03125 0.21875,0 1.09375,0.03125 1.25,0.03125 l 0,-0.25 -0.265625,0 c -0.703125,0 -0.703125,-0.09375 -0.703125,-0.328125 z"
               style="stroke:none"
               inkscape:connector-curvature="0" />
          </symbol>
        </g>
      </defs>
      <g
         id="textext-05a66567-4">
        <g
           id="g6399"
           style="fill:#000000;fill-opacity:1">
          <use
             id="use6401"
             y="134.765"
             x="223.43201"
             xlink:href="#textext-05a66567-1"
             width="744.09448"
             height="1052.3622" />
        </g>
        <g
           id="g6403"
           style="fill:#000000;fill-opacity:1">
          <use
             id="use6405"
             y="136.259"
             x="231.03101"
             xlink:href="#textext-05a66567-3"
             width="744.09448"
             height="1052.3622" />
        </g>
      </g>
    </g>
    <g
       ns0:text="\\(O_2\\)"
       ns0:preamble=""
       transform="matrix(2.0379549,0,0,2.0379549,196.32559,72.010099)"
       id="g6720">
      <defs
         id="defs6722">
        <g
           id="g6724">
          <symbol
             overflow="visible"
             id="textext-e7b22a85-0">
            <path
               style="stroke:none;"
               d=""
               id="path6727" />
          </symbol>
          <symbol
             overflow="visible"
             id="textext-e7b22a85-1">
            <path
               style="stroke:none;"
               d="M 7.375 -4.34375 C 7.375 -5.953125 6.3125 -7.03125 4.828125 -7.03125 C 2.6875 -7.03125 0.484375 -4.765625 0.484375 -2.4375 C 0.484375 -0.78125 1.609375 0.21875 3.046875 0.21875 C 5.15625 0.21875 7.375 -1.96875 7.375 -4.34375 Z M 3.09375 -0.046875 C 2.109375 -0.046875 1.421875 -0.84375 1.421875 -2.15625 C 1.421875 -2.609375 1.5625 -4.0625 2.328125 -5.21875 C 3.015625 -6.265625 3.984375 -6.78125 4.78125 -6.78125 C 5.59375 -6.78125 6.484375 -6.21875 6.484375 -4.734375 C 6.484375 -4.015625 6.21875 -2.46875 5.234375 -1.234375 C 4.75 -0.625 3.9375 -0.046875 3.09375 -0.046875 Z "
               id="path6730" />
          </symbol>
          <symbol
             overflow="visible"
             id="textext-e7b22a85-2">
            <path
               style="stroke:none;"
               d=""
               id="path6733" />
          </symbol>
          <symbol
             overflow="visible"
             id="textext-e7b22a85-3">
            <path
               style="stroke:none;"
               d="M 3.515625 -1.265625 L 3.28125 -1.265625 C 3.265625 -1.109375 3.1875 -0.703125 3.09375 -0.640625 C 3.046875 -0.59375 2.515625 -0.59375 2.40625 -0.59375 L 1.125 -0.59375 C 1.859375 -1.234375 2.109375 -1.4375 2.515625 -1.765625 C 3.03125 -2.171875 3.515625 -2.609375 3.515625 -3.265625 C 3.515625 -4.109375 2.78125 -4.625 1.890625 -4.625 C 1.03125 -4.625 0.4375 -4.015625 0.4375 -3.375 C 0.4375 -3.03125 0.734375 -2.984375 0.8125 -2.984375 C 0.96875 -2.984375 1.171875 -3.109375 1.171875 -3.359375 C 1.171875 -3.484375 1.125 -3.734375 0.765625 -3.734375 C 0.984375 -4.21875 1.453125 -4.375 1.78125 -4.375 C 2.484375 -4.375 2.84375 -3.828125 2.84375 -3.265625 C 2.84375 -2.65625 2.40625 -2.1875 2.1875 -1.9375 L 0.515625 -0.265625 C 0.4375 -0.203125 0.4375 -0.1875 0.4375 0 L 3.3125 0 Z "
               id="path6736" />
          </symbol>
        </g>
      </defs>
      <g
         id="textext-e7b22a85-4">
        <g
           style="fill:rgb(0%,0%,0%);fill-opacity:1;"
           id="g6739">
          <use
             xlink:href="#textext-e7b22a85-1"
             x="223.432"
             y="134.765"
             id="use6741" />
        </g>
        <g
           style="fill:rgb(0%,0%,0%);fill-opacity:1;"
           id="g6743">
          <use
             xlink:href="#textext-e7b22a85-3"
             x="231.031"
             y="136.259"
             id="use6745" />
        </g>
      </g>
    </g>
    <g
       ns0:text="C\\\'amara 1"
       ns0:preamble=""
       transform="matrix(2.0379549,0,0,2.0379549,-304.72589,103.98021)"
       id="g7441">
      <defs
         id="defs7443">
        <g
           id="g7445">
          <symbol
             style="overflow:visible"
             overflow="visible"
             id="textext-996620fb-0">
            <path
               inkscape:connector-curvature="0"
               style="stroke:none"
               d=""
               id="path7448" />
          </symbol>
          <symbol
             style="overflow:visible"
             overflow="visible"
             id="textext-996620fb-1">
            <path
               inkscape:connector-curvature="0"
               style="stroke:none"
               d="m 0.5625,-3.40625 c 0,2.0625 1.609375,3.625 3.46875,3.625 1.625,0 2.59375,-1.390625 2.59375,-2.546875 C 6.625,-2.421875 6.625,-2.5 6.5,-2.5 6.390625,-2.5 6.390625,-2.4375 6.375,-2.328125 6.296875,-0.90625 5.234375,-0.09375 4.140625,-0.09375 c -0.609375,0 -2.5625,-0.328125 -2.5625,-3.3125 0,-2.96875 1.953125,-3.3125 2.5625,-3.3125 1.078125,0 1.96875,0.90625 2.171875,2.359375 0.015625,0.140625 0.015625,0.171875 0.15625,0.171875 0.15625,0 0.15625,-0.03125 0.15625,-0.234375 l 0,-2.359375 c 0,-0.171875 0,-0.25 -0.109375,-0.25 -0.03125,0 -0.078125,0 -0.15625,0.125 l -0.5,0.734375 C 5.5,-6.53125 4.984375,-7.03125 4.03125,-7.03125 c -1.875,0 -3.46875,1.59375 -3.46875,3.625 z"
               id="path7451" />
          </symbol>
          <symbol
             style="overflow:visible"
             overflow="visible"
             id="textext-996620fb-2">
            <path
               inkscape:connector-curvature="0"
               style="stroke:none"
               d="M 3.734375,-6.296875 C 3.828125,-6.375 3.90625,-6.484375 3.90625,-6.59375 c 0,-0.1875 -0.171875,-0.359375 -0.359375,-0.359375 -0.140625,0 -0.25,0.109375 -0.296875,0.171875 l -1.203125,1.515625 0.171875,0.1875 z"
               id="path7454" />
          </symbol>
          <symbol
             style="overflow:visible"
             overflow="visible"
             id="textext-996620fb-3">
            <path
               inkscape:connector-curvature="0"
               style="stroke:none"
               d="m 3.3125,-0.75 c 0.046875,0.390625 0.3125,0.8125 0.78125,0.8125 0.21875,0 0.828125,-0.140625 0.828125,-0.953125 l 0,-0.5625 -0.25,0 0,0.5625 c 0,0.578125 -0.25,0.640625 -0.359375,0.640625 -0.328125,0 -0.375,-0.453125 -0.375,-0.5 l 0,-1.984375 c 0,-0.421875 0,-0.8125 -0.359375,-1.1875 C 3.1875,-4.3125 2.6875,-4.46875 2.21875,-4.46875 c -0.828125,0 -1.515625,0.46875 -1.515625,1.125 0,0.296875 0.203125,0.46875 0.46875,0.46875 0.28125,0 0.453125,-0.203125 0.453125,-0.453125 0,-0.125 -0.046875,-0.453125 -0.515625,-0.453125 C 1.390625,-4.140625 1.875,-4.25 2.1875,-4.25 c 0.5,0 1.0625,0.390625 1.0625,1.28125 l 0,0.359375 c -0.515625,0.03125 -1.203125,0.0625 -1.828125,0.359375 -0.75,0.34375 -1,0.859375 -1,1.296875 0,0.8125 0.96875,1.0625 1.59375,1.0625 0.65625,0 1.109375,-0.40625 1.296875,-0.859375 z M 3.25,-2.390625 l 0,1 c 0,0.9375 -0.71875,1.28125 -1.171875,1.28125 -0.484375,0 -0.890625,-0.34375 -0.890625,-0.84375 0,-0.546875 0.421875,-1.375 2.0625,-1.4375 z"
               id="path7457" />
          </symbol>
          <symbol
             style="overflow:visible"
             overflow="visible"
             id="textext-996620fb-4">
            <path
               inkscape:connector-curvature="0"
               style="stroke:none"
               d="m 1.09375,-3.421875 0,2.671875 c 0,0.4375 -0.109375,0.4375 -0.78125,0.4375 l 0,0.3125 c 0.359375,-0.015625 0.859375,-0.03125 1.140625,-0.03125 0.25,0 0.765625,0.015625 1.109375,0.03125 l 0,-0.3125 c -0.671875,0 -0.78125,0 -0.78125,-0.4375 l 0,-1.84375 C 1.78125,-3.625 2.5,-4.1875 3.125,-4.1875 c 0.640625,0 0.75,0.53125 0.75,1.109375 l 0,2.328125 c 0,0.4375 -0.109375,0.4375 -0.78125,0.4375 l 0,0.3125 c 0.34375,-0.015625 0.859375,-0.03125 1.125,-0.03125 0.25,0 0.78125,0.015625 1.109375,0.03125 l 0,-0.3125 c -0.65625,0 -0.765625,0 -0.765625,-0.4375 l 0,-1.84375 c 0,-1.03125 0.703125,-1.59375 1.34375,-1.59375 0.625,0 0.734375,0.53125 0.734375,1.109375 l 0,2.328125 c 0,0.4375 -0.109375,0.4375 -0.78125,0.4375 l 0,0.3125 c 0.34375,-0.015625 0.859375,-0.03125 1.125,-0.03125 0.265625,0 0.78125,0.015625 1.125,0.03125 l 0,-0.3125 c -0.515625,0 -0.765625,0 -0.78125,-0.296875 l 0,-1.90625 c 0,-0.859375 0,-1.15625 -0.3125,-1.515625 -0.140625,-0.171875 -0.46875,-0.375 -1.046875,-0.375 -0.828125,0 -1.28125,0.59375 -1.4375,0.984375 C 4.390625,-4.296875 3.65625,-4.40625 3.203125,-4.40625 2.46875,-4.40625 2,-3.984375 1.71875,-3.359375 l 0,-1.046875 -1.40625,0.109375 0,0.3125 c 0.703125,0 0.78125,0.0625 0.78125,0.5625 z"
               id="path7460" />
          </symbol>
          <symbol
             style="overflow:visible"
             overflow="visible"
             id="textext-996620fb-5">
            <path
               inkscape:connector-curvature="0"
               style="stroke:none"
               d="m 1.671875,-3.3125 0,-1.09375 -1.390625,0.109375 0,0.3125 c 0.703125,0 0.78125,0.0625 0.78125,0.5625 l 0,2.671875 c 0,0.4375 -0.109375,0.4375 -0.78125,0.4375 l 0,0.3125 c 0.390625,-0.015625 0.859375,-0.03125 1.140625,-0.03125 0.390625,0 0.859375,0 1.265625,0.03125 l 0,-0.3125 -0.21875,0 c -0.734375,0 -0.75,-0.109375 -0.75,-0.46875 l 0,-1.53125 c 0,-0.984375 0.421875,-1.875 1.171875,-1.875 0.0625,0 0.09375,0 0.109375,0.015625 -0.03125,0 -0.234375,0.125 -0.234375,0.390625 0,0.265625 0.21875,0.421875 0.4375,0.421875 0.171875,0 0.421875,-0.125 0.421875,-0.4375 0,-0.3125 -0.3125,-0.609375 -0.734375,-0.609375 -0.734375,0 -1.09375,0.671875 -1.21875,1.09375 z"
               id="path7463" />
          </symbol>
          <symbol
             style="overflow:visible"
             overflow="visible"
             id="textext-996620fb-6">
            <path
               inkscape:connector-curvature="0"
               style="stroke:none"
               d="m 2.9375,-6.375 c 0,-0.25 0,-0.265625 -0.234375,-0.265625 C 2.078125,-6 1.203125,-6 0.890625,-6 l 0,0.3125 c 0.203125,0 0.78125,0 1.296875,-0.265625 l 0,5.171875 c 0,0.359375 -0.03125,0.46875 -0.921875,0.46875 l -0.3125,0 0,0.3125 c 0.34375,-0.03125 1.203125,-0.03125 1.609375,-0.03125 0.390625,0 1.265625,0 1.609375,0.03125 l 0,-0.3125 -0.3125,0 c -0.90625,0 -0.921875,-0.109375 -0.921875,-0.46875 z"
               id="path7466" />
          </symbol>
        </g>
      </defs>
      <g
         id="textext-996620fb-7">
        <g
           style="fill:#000000;fill-opacity:1"
           id="g7469">
          <use
             height="1052.3622"
             width="744.09448"
             xlink:href="#textext-996620fb-1"
             x="223.43201"
             y="134.765"
             id="use7471" />
          <use
             height="1052.3622"
             width="744.09448"
             xlink:href="#textext-996620fb-2"
             x="230.62698"
             y="134.765"
             id="use7473" />
        </g>
        <g
           style="fill:#000000;fill-opacity:1"
           id="g7475">
          <use
             height="1052.3622"
             width="744.09448"
             xlink:href="#textext-996620fb-3"
             x="230.62698"
             y="134.765"
             id="use7477" />
          <use
             height="1052.3622"
             width="744.09448"
             xlink:href="#textext-996620fb-4"
             x="235.60829"
             y="134.765"
             id="use7479" />
          <use
             height="1052.3622"
             width="744.09448"
             xlink:href="#textext-996620fb-3"
             x="243.91013"
             y="134.765"
             id="use7481" />
          <use
             height="1052.3622"
             width="744.09448"
             xlink:href="#textext-996620fb-5"
             x="248.89142"
             y="134.765"
             id="use7483" />
          <use
             height="1052.3622"
             width="744.09448"
             xlink:href="#textext-996620fb-3"
             x="252.79378"
             y="134.765"
             id="use7485" />
        </g>
        <g
           style="fill:#000000;fill-opacity:1"
           id="g7487">
          <use
             height="1052.3622"
             width="744.09448"
             xlink:href="#textext-996620fb-6"
             x="261.09262"
             y="134.765"
             id="use7489" />
        </g>
      </g>
    </g>
    <g
       id="g7933"
       transform="matrix(2.0379549,0,0,2.0379549,64.61758,105.12936)"
       ns0:preamble=""
       ns0:text="C\\\'amara 2">
      <defs
         id="defs7935">
        <g
           id="g7937">
          <symbol
             id="textext-d364c610-0"
             overflow="visible"
             style="overflow:visible">
            <path
               id="path7940"
               d=""
               style="stroke:none"
               inkscape:connector-curvature="0" />
          </symbol>
          <symbol
             id="textext-d364c610-1"
             overflow="visible"
             style="overflow:visible">
            <path
               id="path7943"
               d="m 0.5625,-3.40625 c 0,2.0625 1.609375,3.625 3.46875,3.625 1.625,0 2.59375,-1.390625 2.59375,-2.546875 C 6.625,-2.421875 6.625,-2.5 6.5,-2.5 6.390625,-2.5 6.390625,-2.4375 6.375,-2.328125 6.296875,-0.90625 5.234375,-0.09375 4.140625,-0.09375 c -0.609375,0 -2.5625,-0.328125 -2.5625,-3.3125 0,-2.96875 1.953125,-3.3125 2.5625,-3.3125 1.078125,0 1.96875,0.90625 2.171875,2.359375 0.015625,0.140625 0.015625,0.171875 0.15625,0.171875 0.15625,0 0.15625,-0.03125 0.15625,-0.234375 l 0,-2.359375 c 0,-0.171875 0,-0.25 -0.109375,-0.25 -0.03125,0 -0.078125,0 -0.15625,0.125 l -0.5,0.734375 C 5.5,-6.53125 4.984375,-7.03125 4.03125,-7.03125 c -1.875,0 -3.46875,1.59375 -3.46875,3.625 z"
               style="stroke:none"
               inkscape:connector-curvature="0" />
          </symbol>
          <symbol
             id="textext-d364c610-2"
             overflow="visible"
             style="overflow:visible">
            <path
               id="path7946"
               d="M 3.734375,-6.296875 C 3.828125,-6.375 3.90625,-6.484375 3.90625,-6.59375 c 0,-0.1875 -0.171875,-0.359375 -0.359375,-0.359375 -0.140625,0 -0.25,0.109375 -0.296875,0.171875 l -1.203125,1.515625 0.171875,0.1875 z"
               style="stroke:none"
               inkscape:connector-curvature="0" />
          </symbol>
          <symbol
             id="textext-d364c610-3"
             overflow="visible"
             style="overflow:visible">
            <path
               id="path7949"
               d="m 3.3125,-0.75 c 0.046875,0.390625 0.3125,0.8125 0.78125,0.8125 0.21875,0 0.828125,-0.140625 0.828125,-0.953125 l 0,-0.5625 -0.25,0 0,0.5625 c 0,0.578125 -0.25,0.640625 -0.359375,0.640625 -0.328125,0 -0.375,-0.453125 -0.375,-0.5 l 0,-1.984375 c 0,-0.421875 0,-0.8125 -0.359375,-1.1875 C 3.1875,-4.3125 2.6875,-4.46875 2.21875,-4.46875 c -0.828125,0 -1.515625,0.46875 -1.515625,1.125 0,0.296875 0.203125,0.46875 0.46875,0.46875 0.28125,0 0.453125,-0.203125 0.453125,-0.453125 0,-0.125 -0.046875,-0.453125 -0.515625,-0.453125 C 1.390625,-4.140625 1.875,-4.25 2.1875,-4.25 c 0.5,0 1.0625,0.390625 1.0625,1.28125 l 0,0.359375 c -0.515625,0.03125 -1.203125,0.0625 -1.828125,0.359375 -0.75,0.34375 -1,0.859375 -1,1.296875 0,0.8125 0.96875,1.0625 1.59375,1.0625 0.65625,0 1.109375,-0.40625 1.296875,-0.859375 z M 3.25,-2.390625 l 0,1 c 0,0.9375 -0.71875,1.28125 -1.171875,1.28125 -0.484375,0 -0.890625,-0.34375 -0.890625,-0.84375 0,-0.546875 0.421875,-1.375 2.0625,-1.4375 z"
               style="stroke:none"
               inkscape:connector-curvature="0" />
          </symbol>
          <symbol
             id="textext-d364c610-4"
             overflow="visible"
             style="overflow:visible">
            <path
               id="path7952"
               d="m 1.09375,-3.421875 0,2.671875 c 0,0.4375 -0.109375,0.4375 -0.78125,0.4375 l 0,0.3125 c 0.359375,-0.015625 0.859375,-0.03125 1.140625,-0.03125 0.25,0 0.765625,0.015625 1.109375,0.03125 l 0,-0.3125 c -0.671875,0 -0.78125,0 -0.78125,-0.4375 l 0,-1.84375 C 1.78125,-3.625 2.5,-4.1875 3.125,-4.1875 c 0.640625,0 0.75,0.53125 0.75,1.109375 l 0,2.328125 c 0,0.4375 -0.109375,0.4375 -0.78125,0.4375 l 0,0.3125 c 0.34375,-0.015625 0.859375,-0.03125 1.125,-0.03125 0.25,0 0.78125,0.015625 1.109375,0.03125 l 0,-0.3125 c -0.65625,0 -0.765625,0 -0.765625,-0.4375 l 0,-1.84375 c 0,-1.03125 0.703125,-1.59375 1.34375,-1.59375 0.625,0 0.734375,0.53125 0.734375,1.109375 l 0,2.328125 c 0,0.4375 -0.109375,0.4375 -0.78125,0.4375 l 0,0.3125 c 0.34375,-0.015625 0.859375,-0.03125 1.125,-0.03125 0.265625,0 0.78125,0.015625 1.125,0.03125 l 0,-0.3125 c -0.515625,0 -0.765625,0 -0.78125,-0.296875 l 0,-1.90625 c 0,-0.859375 0,-1.15625 -0.3125,-1.515625 -0.140625,-0.171875 -0.46875,-0.375 -1.046875,-0.375 -0.828125,0 -1.28125,0.59375 -1.4375,0.984375 C 4.390625,-4.296875 3.65625,-4.40625 3.203125,-4.40625 2.46875,-4.40625 2,-3.984375 1.71875,-3.359375 l 0,-1.046875 -1.40625,0.109375 0,0.3125 c 0.703125,0 0.78125,0.0625 0.78125,0.5625 z"
               style="stroke:none"
               inkscape:connector-curvature="0" />
          </symbol>
          <symbol
             id="textext-d364c610-5"
             overflow="visible"
             style="overflow:visible">
            <path
               id="path7955"
               d="m 1.671875,-3.3125 0,-1.09375 -1.390625,0.109375 0,0.3125 c 0.703125,0 0.78125,0.0625 0.78125,0.5625 l 0,2.671875 c 0,0.4375 -0.109375,0.4375 -0.78125,0.4375 l 0,0.3125 c 0.390625,-0.015625 0.859375,-0.03125 1.140625,-0.03125 0.390625,0 0.859375,0 1.265625,0.03125 l 0,-0.3125 -0.21875,0 c -0.734375,0 -0.75,-0.109375 -0.75,-0.46875 l 0,-1.53125 c 0,-0.984375 0.421875,-1.875 1.171875,-1.875 0.0625,0 0.09375,0 0.109375,0.015625 -0.03125,0 -0.234375,0.125 -0.234375,0.390625 0,0.265625 0.21875,0.421875 0.4375,0.421875 0.171875,0 0.421875,-0.125 0.421875,-0.4375 0,-0.3125 -0.3125,-0.609375 -0.734375,-0.609375 -0.734375,0 -1.09375,0.671875 -1.21875,1.09375 z"
               style="stroke:none"
               inkscape:connector-curvature="0" />
          </symbol>
          <symbol
             id="textext-d364c610-6"
             overflow="visible"
             style="overflow:visible">
            <path
               id="path7958"
               d="m 1.265625,-0.765625 1.0625,-1.03125 c 1.546875,-1.375 2.140625,-1.90625 2.140625,-2.90625 0,-1.140625 -0.890625,-1.9375 -2.109375,-1.9375 -1.125,0 -1.859375,0.921875 -1.859375,1.8125 0,0.546875 0.5,0.546875 0.53125,0.546875 0.171875,0 0.515625,-0.109375 0.515625,-0.53125 0,-0.25 -0.1875,-0.515625 -0.53125,-0.515625 -0.078125,0 -0.09375,0 -0.125,0.015625 0.21875,-0.65625 0.765625,-1.015625 1.34375,-1.015625 0.90625,0 1.328125,0.8125 1.328125,1.625 C 3.5625,-3.90625 3.078125,-3.125 2.515625,-2.5 l -1.90625,2.125 C 0.5,-0.265625 0.5,-0.234375 0.5,0 l 3.703125,0 0.265625,-1.734375 -0.234375,0 C 4.171875,-1.4375 4.109375,-1 4,-0.84375 3.9375,-0.765625 3.28125,-0.765625 3.0625,-0.765625 z"
               style="stroke:none"
               inkscape:connector-curvature="0" />
          </symbol>
        </g>
      </defs>
      <g
         id="textext-d364c610-7">
        <g
           id="g7961"
           style="fill:#000000;fill-opacity:1">
          <use
             id="use7963"
             y="134.765"
             x="223.43201"
             xlink:href="#textext-d364c610-1"
             width="744.09448"
             height="1052.3622" />
          <use
             id="use7965"
             y="134.765"
             x="230.62698"
             xlink:href="#textext-d364c610-2"
             width="744.09448"
             height="1052.3622" />
        </g>
        <g
           id="g7967"
           style="fill:#000000;fill-opacity:1">
          <use
             id="use7969"
             y="134.765"
             x="230.62698"
             xlink:href="#textext-d364c610-3"
             width="744.09448"
             height="1052.3622" />
          <use
             id="use7971"
             y="134.765"
             x="235.60829"
             xlink:href="#textext-d364c610-4"
             width="744.09448"
             height="1052.3622" />
          <use
             id="use7973"
             y="134.765"
             x="243.91013"
             xlink:href="#textext-d364c610-3"
             width="744.09448"
             height="1052.3622" />
          <use
             id="use7975"
             y="134.765"
             x="248.89142"
             xlink:href="#textext-d364c610-5"
             width="744.09448"
             height="1052.3622" />
          <use
             id="use7977"
             y="134.765"
             x="252.79378"
             xlink:href="#textext-d364c610-3"
             width="744.09448"
             height="1052.3622" />
        </g>
        <g
           id="g7979"
           style="fill:#000000;fill-opacity:1">
          <use
             id="use7981"
             y="134.765"
             x="261.09262"
             xlink:href="#textext-d364c610-6"
             width="744.09448"
             height="1052.3622" />
        </g>
      </g>
    </g>
  </g>
</svg>
