<?xml version="1.0" encoding="UTF-8" standalone="no"?>
<!-- Created with Inkscape (http://www.inkscape.org/) -->

<svg
   xmlns:ns0="http://www.iki.fi/pav/software/textext/"
   xmlns:dc="http://purl.org/dc/elements/1.1/"
   xmlns:cc="http://creativecommons.org/ns#"
   xmlns:rdf="http://www.w3.org/1999/02/22-rdf-syntax-ns#"
   xmlns:svg="http://www.w3.org/2000/svg"
   xmlns="http://www.w3.org/2000/svg"
   xmlns:xlink="http://www.w3.org/1999/xlink"
   xmlns:sodipodi="http://sodipodi.sourceforge.net/DTD/sodipodi-0.dtd"
   xmlns:inkscape="http://www.inkscape.org/namespaces/inkscape"
   id="svg2"
   version="1.1"
   inkscape:version="0.48.4 r9939"
   width="462"
   height="226"
   sodipodi:docname="pinhole_modelo.svg">
  <sodipodi:namedview
     pagecolor="#ffffff"
     bordercolor="#666666"
     borderopacity="1"
     objecttolerance="10"
     gridtolerance="10"
     guidetolerance="10"
     inkscape:pageopacity="0"
     inkscape:pageshadow="2"
     inkscape:window-width="1920"
     inkscape:window-height="1031"
     id="namedview4"
     showgrid="false"
     inkscape:zoom="2.1427478"
     inkscape:cx="149.31527"
     inkscape:cy="195.82914"
     inkscape:window-x="0"
     inkscape:window-y="25"
     inkscape:window-maximized="1"
     inkscape:current-layer="svg2" />
  <metadata
     id="metadata8">
    <rdf:RDF>
      <cc:Work
         rdf:about="">
        <dc:format>image/svg+xml</dc:format>
        <dc:type
           rdf:resource="http://purl.org/dc/dcmitype/StillImage" />
        <dc:title />
      </cc:Work>
    </rdf:RDF>
  </metadata>
  <defs
     id="defs6" />
  <path
     inkscape:connector-curvature="0"
     id="path3023"
     d="m 50.316743,133.62747 0.750996,-90.870535 131.424331,57.826705 -2.25299,90.87054 z"
     style="fill:none;stroke:#000000;stroke-width:2;stroke-linecap:butt;stroke-linejoin:miter;stroke-opacity:1;stroke-miterlimit:4;stroke-dasharray:none" />
  <path
     inkscape:connector-curvature="0"
     id="path3025"
     d="M 39.851933,162.11619 135.68201,130.3221"
     style="fill:none;stroke:#0000ff;stroke-width:2;stroke-linecap:butt;stroke-linejoin:miter;stroke-miterlimit:4;stroke-opacity:1;stroke-dasharray:none"
     sodipodi:nodetypes="cc" />
  <path
     inkscape:connector-curvature="0"
     id="path3027"
     d="M 86.203631,187.50206 38.300805,162.91632 39.66991,203.425"
     style="fill:none;stroke:#000000;stroke-width:2;stroke-linecap:butt;stroke-linejoin:miter;stroke-miterlimit:4;stroke-opacity:0.68627451;stroke-dasharray:none"
     sodipodi:nodetypes="ccc" />
  <path
     sodipodi:nodetypes="ccc"
     inkscape:connector-curvature="0"
     id="path3029"
     d="m 332.13744,135.77854 c -36.23356,55.73273 -97.80525,80.63653 -199.01399,58.5777 l 0.93339,0"
     style="fill:none;stroke:#000000;stroke-width:2;stroke-linecap:butt;stroke-linejoin:miter;stroke-miterlimit:4;stroke-opacity:0.68627451;stroke-dasharray:none" />
  <path
     sodipodi:nodetypes="cc"
     inkscape:connector-curvature="0"
     id="path3031"
     d="M 76.038362,54.209626 C 74.592889,66.72065 70.805335,74.213619 54.911718,68.290805"
     style="fill:none;stroke:#000000;stroke-width:2;stroke-linecap:butt;stroke-linejoin:miter;stroke-miterlimit:4;stroke-opacity:1;stroke-dasharray:none" />
  <path
     inkscape:connector-curvature="0"
     id="path3033"
     d="M 325.96749,14.371136 321.27586,84.213793 404.924,68.370442"
     style="fill:none;stroke:#000000;stroke-width:2;stroke-linecap:butt;stroke-linejoin:miter;stroke-miterlimit:4;stroke-opacity:0.68627453;stroke-dasharray:none"
     sodipodi:nodetypes="ccc" />
  <path
     sodipodi:nodetypes="cc"
     inkscape:connector-curvature="0"
     id="path3035"
     d="m 321.1431,84.446121 54.47858,52.077729"
     style="fill:none;stroke:#000000;stroke-width:2;stroke-linecap:butt;stroke-linejoin:miter;stroke-miterlimit:4;stroke-opacity:0.68627453;stroke-dasharray:none" />
  <path
     sodipodi:nodetypes="cccc"
     inkscape:connector-curvature="0"
     id="rect3037-5"
     d="m 332.22084,14.538867 c -0.0638,0.0061 -11.85081,-0.432569 -11.85081,-0.432569 l 6.33431,-11.6480699 z"
     style="fill:#000000;fill-opacity:0.65354329;stroke:#000000;stroke-width:0.40624093999999999;stroke-miterlimit:4;stroke-opacity:0.58267718999999996;stroke-dashoffset:0" />
  <path
     sodipodi:nodetypes="cccc"
     inkscape:connector-curvature="0"
     id="rect3037-5-9"
     d="m 371.19634,140.10746 c 0.0443,-0.0464 9.21972,-7.45827 9.21972,-7.45827 l 2.87512,12.94352 z"
     style="fill:#000000;fill-opacity:0.68627453;stroke:#000000;stroke-width:0.40624093999999999;stroke-miterlimit:4;stroke-opacity:0.48031497000000001;stroke-dashoffset:0" />
  <path
     sodipodi:nodetypes="cccc"
     inkscape:connector-curvature="0"
     id="rect3037-5-1"
     d="m 406.48385,74.635943 c -0.0221,-0.06016 -2.64484,-11.560005 -2.64484,-11.560005 l 12.88939,3.108842 z"
     style="fill:#000000;fill-opacity:0.68503934;stroke:#000000;stroke-width:0.40624093999999999;stroke-miterlimit:4;stroke-opacity:0.48031497000000001;stroke-dashoffset:0" />
  <path
     sodipodi:nodetypes="cccc"
     inkscape:connector-curvature="0"
     id="rect3037-5-5"
     d="m 136.29377,189.60249 c -0.0268,0.0582 -6.31647,10.03649 -6.31647,10.03649 l -6.90183,-11.32103 z"
     style="fill:#000000;fill-opacity:0.68627451;stroke:#000000;stroke-width:0.40624094;stroke-miterlimit:4;stroke-opacity:0.68627451;stroke-dashoffset:0" />
  <path
     sodipodi:nodetypes="cccc"
     inkscape:connector-curvature="0"
     id="rect3037-5-8"
     d="m 83.094098,192.49178 c 0.02631,-0.0584 6.232723,-10.0887 6.232723,-10.0887 l 6.995815,11.26319 z"
     style="fill:#000000;fill-opacity:0.68627451;stroke:#000000;stroke-width:0.40624094;stroke-miterlimit:4;stroke-opacity:0.68627451;stroke-dashoffset:0" />
  <path
     inkscape:transform-center-y="-0.0351034"
     inkscape:transform-center-x="-3.2141394"
     sodipodi:nodetypes="cccc"
     inkscape:connector-curvature="0"
     id="rect3037-5-55"
     d="m 103.45415,128.47235 c -0.0475,-0.0432 -7.65521,-9.05685 -7.65521,-9.05685 l 12.87854,-3.1534 z"
     style="fill:#000000;fill-opacity:0.68627453;stroke:#000000;stroke-width:0.40624093999999999;stroke-miterlimit:4;stroke-opacity:0.68627453000000005;stroke-dashoffset:0" />
  <path
     sodipodi:nodetypes="cccc"
     inkscape:connector-curvature="0"
     id="rect3037-5-6"
     d="m 33.39642,203.65566 c 0.06303,-0.0116 11.843132,-0.60745 11.843132,-0.60745 l -5.289362,12.15828 z"
     style="fill:#000000;fill-opacity:0.68627451;stroke:#000000;stroke-width:0.40624094;stroke-miterlimit:4;stroke-opacity:0.68627451;stroke-dashoffset:0" />
  <path
     style="fill:none;stroke:#000000;stroke-width:2;stroke-linecap:butt;stroke-linejoin:miter;stroke-miterlimit:4;stroke-opacity:0.68627451;stroke-dasharray:none"
     d="M 38.75,161 99.507359,123.85876"
     id="path6887"
     inkscape:connector-curvature="0"
     sodipodi:nodetypes="cc" />
  <path
     id="path3961"
     transform="translate(0.6637931,-0.73017242)"
     d="m 41.951726,162.37543 a 3.4849138,3.4849138 0 1 1 -6.969828,0 3.4849138,3.4849138 0 1 1 6.969828,0 z"
     sodipodi:ry="3.4849138"
     sodipodi:rx="3.4849138"
     sodipodi:cy="162.37543"
     sodipodi:cx="38.466812"
     style="fill:#000000;fill-opacity:1;stroke:#000000;stroke-width:2;stroke-miterlimit:4;stroke-opacity:1;stroke-dasharray:none;stroke-dashoffset:0"
     sodipodi:type="arc" />
  <g
     id="g5380"
     transform="matrix(1.7994198,0,0,1.7994198,-262.00793,-96.014321)"
     ns0:preamble=""
     ns0:text="\\textbf m">
    <defs
       id="defs5382">
      <g
         id="g5384">
        <symbol
           id="textext-d007c9e7-0"
           overflow="visible"
           style="overflow:visible">
          <path
             id="path5387"
             d=""
             style="stroke:none"
             inkscape:connector-curvature="0" />
        </symbol>
        <symbol
           id="textext-d007c9e7-1"
           overflow="visible"
           style="overflow:visible">
          <path
             id="path5390"
             d="m 1.140625,-3.546875 0,3.078125 -0.6875,0 0,0.46875 c 0.28125,-0.015625 0.875,-0.03125 1.25,-0.03125 0.390625,0 0.984375,0.015625 1.25,0.03125 l 0,-0.46875 -0.6875,0 0,-2.078125 c 0,-1.09375 0.875,-1.578125 1.5,-1.578125 0.328125,0 0.546875,0.203125 0.546875,0.96875 l 0,2.6875 -0.6875,0 0,0.46875 c 0.28125,-0.015625 0.875,-0.03125 1.265625,-0.03125 0.390625,0 0.96875,0.015625 1.25,0.03125 l 0,-0.46875 -0.6875,0 0,-2.078125 C 5.453125,-3.640625 6.3125,-4.125 6.9375,-4.125 7.28125,-4.125 7.5,-3.921875 7.5,-3.15625 l 0,2.6875 -0.6875,0 0,0.46875 c 0.28125,-0.015625 0.875,-0.03125 1.25,-0.03125 0.390625,0 0.984375,0.015625 1.265625,0.03125 l 0,-0.46875 -0.6875,0 0,-2.578125 c 0,-1.03125 -0.515625,-1.4375 -1.546875,-1.4375 -0.90625,0 -1.421875,0.5 -1.6875,0.953125 -0.1875,-0.921875 -1.109375,-0.953125 -1.484375,-0.953125 -0.875,0 -1.4375,0.453125 -1.765625,1.078125 l 0,-1.078125 -1.703125,0.078125 0,0.46875 c 0.609375,0 0.6875,0 0.6875,0.390625 z m 0,0"
             style="stroke:none"
             inkscape:connector-curvature="0" />
        </symbol>
      </g>
    </defs>
    <g
       id="textext-d007c9e7-2">
      <g
         id="g5393"
         style="fill:#000000;fill-opacity:1">
        <use
           id="use5395"
           y="134.765"
           x="223.43201"
           xlink:href="#textext-d007c9e7-1"
           width="462"
           height="226" />
      </g>
    </g>
  </g>
  <path
     style="fill:none;stroke:#0000ff;stroke-width:2;stroke-linecap:butt;stroke-linejoin:miter;stroke-opacity:1;stroke-miterlimit:4;stroke-dasharray:8, 4;stroke-dashoffset:3.79999999999999982"
     d="m 139.75211,128.70977 43.4668,-14.21169"
     id="path6889"
     inkscape:connector-curvature="0"
     sodipodi:nodetypes="cc" />
  <path
     transform="translate(98.847626,-32.490173)"
     d="m 41.951726,162.37543 a 3.4849138,3.4849138 0 1 1 -6.969828,0 3.4849138,3.4849138 0 1 1 6.969828,0 z"
     sodipodi:ry="3.4849138"
     sodipodi:rx="3.4849138"
     sodipodi:cy="162.37543"
     sodipodi:cx="38.466812"
     style="fill:#000000;fill-opacity:1;stroke:#000000;stroke-width:2;stroke-miterlimit:4;stroke-opacity:1;stroke-dasharray:none;stroke-dashoffset:0"
     sodipodi:type="arc"
     id="path3926" />
  <path
     style="fill:none;stroke:#0000ff;stroke-width:2;stroke-linecap:butt;stroke-linejoin:miter;stroke-opacity:1;stroke-miterlimit:4;stroke-dasharray:none"
     d="M 182.03843,114.7826 360.26069,55.28498"
     id="path6891"
     inkscape:connector-curvature="0"
     sodipodi:nodetypes="cc" />
  <path
     transform="translate(324.34053,-108.56516)"
     d="m 41.951726,162.37543 a 3.4849138,3.4849138 0 1 1 -6.969828,0 3.4849138,3.4849138 0 1 1 6.969828,0 z"
     sodipodi:ry="3.4849138"
     sodipodi:rx="3.4849138"
     sodipodi:cy="162.37543"
     sodipodi:cx="38.466812"
     style="fill:#000000;fill-opacity:1;stroke:#000000;stroke-width:2;stroke-miterlimit:4;stroke-opacity:1;stroke-dasharray:none;stroke-dashoffset:0"
     sodipodi:type="arc"
     id="path3926-6" />
  <path
     sodipodi:nodetypes="cccc"
     inkscape:connector-curvature="0"
     id="rect3037-5-8-1"
     d="m 60.761329,65.982587 c -0.0078,0.04325 -2.464973,7.755318 -2.464973,7.755318 l -6.536136,-6.32947 z"
     style="fill:#000000;fill-opacity:1;stroke:#000000;stroke-width:0.27876908;stroke-miterlimit:4;stroke-opacity:1;stroke-dashoffset:0" />
  <g
     ns0:text="$\\mathbf{(u_0, v_0)}$"
     ns0:preamble=""
     transform="matrix(1.7994198,0,0,1.7994198,-328.1474,-134.60293)"
     id="g7062">
    <defs
       id="defs7064">
      <g
         id="g7066">
        <symbol
           overflow="visible"
           id="textext-5f9fd5a4-0">
          <path
             style="stroke:none;"
             d=""
             id="path7069" />
        </symbol>
        <symbol
           overflow="visible"
           id="textext-5f9fd5a4-1">
          <path
             style="stroke:none;"
             d="M 3.296875 2.390625 C 3.296875 2.359375 3.296875 2.34375 3.125 2.171875 C 1.890625 0.921875 1.5625 -0.96875 1.5625 -2.5 C 1.5625 -4.234375 1.9375 -5.96875 3.171875 -7.203125 C 3.296875 -7.328125 3.296875 -7.34375 3.296875 -7.375 C 3.296875 -7.453125 3.265625 -7.484375 3.203125 -7.484375 C 3.09375 -7.484375 2.203125 -6.796875 1.609375 -5.53125 C 1.109375 -4.4375 0.984375 -3.328125 0.984375 -2.5 C 0.984375 -1.71875 1.09375 -0.515625 1.640625 0.625 C 2.25 1.84375 3.09375 2.5 3.203125 2.5 C 3.265625 2.5 3.296875 2.46875 3.296875 2.390625 Z M 3.296875 2.390625 "
             id="path7072" />
        </symbol>
        <symbol
           overflow="visible"
           id="textext-5f9fd5a4-2">
          <path
             style="stroke:none;"
             d="M 2.875 -2.5 C 2.875 -3.265625 2.765625 -4.46875 2.21875 -5.609375 C 1.625 -6.828125 0.765625 -7.484375 0.671875 -7.484375 C 0.609375 -7.484375 0.5625 -7.4375 0.5625 -7.375 C 0.5625 -7.34375 0.5625 -7.328125 0.75 -7.140625 C 1.734375 -6.15625 2.296875 -4.578125 2.296875 -2.5 C 2.296875 -0.78125 1.9375 0.96875 0.703125 2.21875 C 0.5625 2.34375 0.5625 2.359375 0.5625 2.390625 C 0.5625 2.453125 0.609375 2.5 0.671875 2.5 C 0.765625 2.5 1.671875 1.8125 2.25 0.546875 C 2.765625 -0.546875 2.875 -1.65625 2.875 -2.5 Z M 2.875 -2.5 "
             id="path7075" />
        </symbol>
        <symbol
           overflow="visible"
           id="textext-5f9fd5a4-3">
          <path
             style="stroke:none;"
             d=""
             id="path7078" />
        </symbol>
        <symbol
           overflow="visible"
           id="textext-5f9fd5a4-4">
          <path
             style="stroke:none;"
             d="M 4.359375 -0.71875 L 4.359375 0.0625 L 6.125 0 L 6.125 -0.46875 C 5.515625 -0.46875 5.4375 -0.46875 5.4375 -0.859375 L 5.4375 -4.484375 L 3.625 -4.40625 L 3.625 -3.9375 C 4.234375 -3.9375 4.3125 -3.9375 4.3125 -3.546875 L 4.3125 -1.640625 C 4.3125 -0.828125 3.796875 -0.296875 3.078125 -0.296875 C 2.296875 -0.296875 2.265625 -0.546875 2.265625 -1.09375 L 2.265625 -4.484375 L 0.453125 -4.40625 L 0.453125 -3.9375 C 1.0625 -3.9375 1.140625 -3.9375 1.140625 -3.546875 L 1.140625 -1.21875 C 1.140625 -0.15625 1.9375 0.0625 2.9375 0.0625 C 3.1875 0.0625 3.90625 0.0625 4.359375 -0.71875 Z M 4.359375 -0.71875 "
             id="path7081" />
        </symbol>
        <symbol
           overflow="visible"
           id="textext-5f9fd5a4-5">
          <path
             style="stroke:none;"
             d="M 5.046875 -3.75 C 5.109375 -3.890625 5.140625 -3.953125 5.78125 -3.953125 L 5.78125 -4.421875 C 5.53125 -4.40625 5.25 -4.390625 5 -4.390625 C 4.75 -4.390625 4.296875 -4.421875 4.09375 -4.421875 L 4.09375 -3.953125 C 4.28125 -3.953125 4.5625 -3.921875 4.5625 -3.84375 C 4.5625 -3.84375 4.5625 -3.8125 4.515625 -3.734375 L 3.359375 -1.234375 L 2.09375 -3.953125 L 2.625 -3.953125 L 2.625 -4.421875 C 2.296875 -4.40625 1.40625 -4.390625 1.390625 -4.390625 C 1.109375 -4.390625 0.671875 -4.421875 0.265625 -4.421875 L 0.265625 -3.953125 L 0.890625 -3.953125 L 2.640625 -0.203125 C 2.765625 0.046875 2.890625 0.046875 3.015625 0.046875 C 3.1875 0.046875 3.296875 0.015625 3.390625 -0.203125 Z M 5.046875 -3.75 "
             id="path7084" />
        </symbol>
        <symbol
           overflow="visible"
           id="textext-5f9fd5a4-6">
          <path
             style="stroke:none;"
             d=""
             id="path7087" />
        </symbol>
        <symbol
           overflow="visible"
           id="textext-5f9fd5a4-7">
          <path
             style="stroke:none;"
             d="M 4.125 -2.21875 C 4.125 -3.078125 4.03125 -4.578125 2.25 -4.578125 C 0.46875 -4.578125 0.375 -3.0625 0.375 -2.21875 C 0.375 -1.34375 0.484375 0.078125 2.25 0.078125 C 4.015625 0.078125 4.125 -1.328125 4.125 -2.21875 Z M 2.25 -0.234375 C 2.03125 -0.234375 1.8125 -0.3125 1.65625 -0.453125 C 1.46875 -0.625 1.34375 -0.71875 1.34375 -2.3125 C 1.34375 -2.78125 1.34375 -3.34375 1.421875 -3.671875 C 1.53125 -4.125 1.96875 -4.25 2.25 -4.25 C 2.515625 -4.25 2.96875 -4.140625 3.078125 -3.65625 C 3.15625 -3.328125 3.15625 -2.75 3.15625 -2.3125 C 3.15625 -1.8125 3.15625 -1.3125 3.09375 -0.921875 C 2.984375 -0.359375 2.515625 -0.234375 2.25 -0.234375 Z M 2.25 -0.234375 "
             id="path7090" />
        </symbol>
        <symbol
           overflow="visible"
           id="textext-5f9fd5a4-8">
          <path
             style="stroke:none;"
             d=""
             id="path7093" />
        </symbol>
        <symbol
           overflow="visible"
           id="textext-5f9fd5a4-9">
          <path
             style="stroke:none;"
             d="M 2.03125 -0.015625 C 2.03125 -0.671875 1.78125 -1.0625 1.390625 -1.0625 C 1.0625 -1.0625 0.859375 -0.8125 0.859375 -0.53125 C 0.859375 -0.265625 1.0625 0 1.390625 0 C 1.5 0 1.640625 -0.046875 1.734375 -0.125 C 1.765625 -0.15625 1.78125 -0.15625 1.78125 -0.15625 C 1.796875 -0.15625 1.796875 -0.15625 1.796875 -0.015625 C 1.796875 0.734375 1.453125 1.328125 1.125 1.65625 C 1.015625 1.765625 1.015625 1.78125 1.015625 1.8125 C 1.015625 1.890625 1.0625 1.921875 1.109375 1.921875 C 1.21875 1.921875 2.03125 1.15625 2.03125 -0.015625 Z M 2.03125 -0.015625 "
             id="path7096" />
        </symbol>
      </g>
    </defs>
    <g
       id="textext-5f9fd5a4-10">
      <g
         style="fill:rgb(0%,0%,0%);fill-opacity:1;"
         id="g7099">
        <use
           xlink:href="#textext-5f9fd5a4-1"
           x="223.432"
           y="134.765"
           id="use7101" />
      </g>
      <g
         style="fill:rgb(0%,0%,0%);fill-opacity:1;"
         id="g7103">
        <use
           xlink:href="#textext-5f9fd5a4-4"
           x="227.306"
           y="134.765"
           id="use7105" />
      </g>
      <g
         style="fill:rgb(0%,0%,0%);fill-opacity:1;"
         id="g7107">
        <use
           xlink:href="#textext-5f9fd5a4-7"
           x="233.671"
           y="136.259"
           id="use7109" />
      </g>
      <g
         style="fill:rgb(0%,0%,0%);fill-opacity:1;"
         id="g7111">
        <use
           xlink:href="#textext-5f9fd5a4-9"
           x="238.683"
           y="134.765"
           id="use7113" />
      </g>
      <g
         style="fill:rgb(0%,0%,0%);fill-opacity:1;"
         id="g7115">
        <use
           xlink:href="#textext-5f9fd5a4-5"
           x="243.111"
           y="134.765"
           id="use7117" />
      </g>
      <g
         style="fill:rgb(0%,0%,0%);fill-opacity:1;"
         id="g7119">
        <use
           xlink:href="#textext-5f9fd5a4-7"
           x="249.158"
           y="136.259"
           id="use7121" />
      </g>
      <g
         style="fill:rgb(0%,0%,0%);fill-opacity:1;"
         id="g7123">
        <use
           xlink:href="#textext-5f9fd5a4-2"
           x="254.169"
           y="134.765"
           id="use7125" />
      </g>
    </g>
  </g>
  <g
     ns0:text="$\\mathbf{\\theta}$"
     ns0:preamble=""
     transform="matrix(1.7994198,0,0,1.7994198,-334.00793,-160.51432)"
     id="g7876">
    <defs
       id="defs7878">
      <g
         id="g7880">
        <symbol
           overflow="visible"
           id="textext-4a8bf1bd-0">
          <path
             style="stroke:none;"
             d=""
             id="path7883" />
        </symbol>
        <symbol
           overflow="visible"
           id="textext-4a8bf1bd-1">
          <path
             style="stroke:none;"
             d="M 4.53125 -4.984375 C 4.53125 -5.640625 4.359375 -7.03125 3.34375 -7.03125 C 1.953125 -7.03125 0.421875 -4.21875 0.421875 -1.9375 C 0.421875 -1 0.703125 0.109375 1.609375 0.109375 C 3.015625 0.109375 4.53125 -2.75 4.53125 -4.984375 Z M 1.46875 -3.625 C 1.640625 -4.25 1.84375 -5.046875 2.25 -5.765625 C 2.515625 -6.25 2.875 -6.8125 3.328125 -6.8125 C 3.8125 -6.8125 3.875 -6.171875 3.875 -5.609375 C 3.875 -5.109375 3.796875 -4.609375 3.5625 -3.625 Z M 3.46875 -3.296875 C 3.359375 -2.84375 3.15625 -2 2.765625 -1.28125 C 2.421875 -0.59375 2.046875 -0.109375 1.609375 -0.109375 C 1.28125 -0.109375 1.078125 -0.40625 1.078125 -1.328125 C 1.078125 -1.75 1.140625 -2.328125 1.390625 -3.296875 Z M 3.46875 -3.296875 "
             id="path7886" />
        </symbol>
      </g>
    </defs>
    <g
       id="textext-4a8bf1bd-2">
      <g
         style="fill:rgb(0%,0%,0%);fill-opacity:1;"
         id="g7889">
        <use
           xlink:href="#textext-4a8bf1bd-1"
           x="223.432"
           y="134.765"
           id="use7891" />
      </g>
    </g>
  </g>
  <path
     sodipodi:nodetypes="cccc"
     inkscape:connector-curvature="0"
     id="rect3037-5-8-1-5"
     d="m 93.184953,65.899606 c 0.0132,-0.04196 3.390765,-7.397552 3.390765,-7.397552 l 5.716982,7.0781 z"
     style="fill:#000000;fill-opacity:1;stroke:#000000;stroke-width:0.27876908;stroke-miterlimit:4;stroke-opacity:1;stroke-dashoffset:0" />
  <path
     sodipodi:nodetypes="cccc"
     inkscape:connector-curvature="0"
     id="rect3037-5-8-1-5-4"
     d="m 46.791446,79.908733 c 0.04371,-0.0049 8.136967,0.104079 8.136967,0.104079 l -4.156103,8.093837 z"
     style="fill:#000000;fill-opacity:1;stroke:#000000;stroke-width:0.27876908;stroke-miterlimit:4;stroke-opacity:1;stroke-dashoffset:0" />
  <g
     id="g8271"
     transform="matrix(2.4567383,0,0,2.4567383,-194.33689,-310.21407)"
     ns0:preamble=""
     ns0:text="$\\mathbf{M = \\left[ \\begin{array}{c}\nX\\\\\nY\\\\\nZ\\\\\n\\end{array}\\right]}$">
    <defs
       id="defs8273">
      <g
         id="g8275">
        <symbol
           id="textext-e2fd9b4b-0"
           overflow="visible">
          <path
             id="path8278"
             d=""
             style="stroke:none;" />
        </symbol>
        <symbol
           id="textext-e2fd9b4b-1"
           overflow="visible">
          <path
             id="path8281"
             d="M 5.4375 -1.3125 L 3.046875 -6.59375 C 2.9375 -6.84375 2.828125 -6.84375 2.609375 -6.84375 L 0.40625 -6.84375 L 0.40625 -6.375 L 1.46875 -6.375 L 1.46875 -0.75 C 1.46875 -0.53125 1.46875 -0.53125 1.1875 -0.5 C 0.953125 -0.46875 0.921875 -0.46875 0.640625 -0.46875 L 0.40625 -0.46875 L 0.40625 0 C 0.78125 -0.03125 1.34375 -0.03125 1.734375 -0.03125 C 2.15625 -0.03125 2.671875 -0.03125 3.078125 0 L 3.078125 -0.46875 L 2.828125 -0.46875 C 2.65625 -0.46875 2.484375 -0.484375 2.296875 -0.5 C 2.015625 -0.53125 2 -0.53125 2 -0.75 L 2 -6.234375 L 2.015625 -6.234375 L 4.71875 -0.25 C 4.8125 -0.046875 4.9375 0 5.046875 0 C 5.25 0 5.328125 -0.15625 5.359375 -0.234375 L 8.140625 -6.375 L 8.15625 -6.375 L 8.15625 -0.46875 L 7.078125 -0.46875 L 7.078125 0 C 7.4375 -0.03125 8.359375 -0.03125 8.765625 -0.03125 C 9.1875 -0.03125 10.125 -0.03125 10.484375 0 L 10.484375 -0.46875 L 9.40625 -0.46875 L 9.40625 -6.375 L 10.484375 -6.375 L 10.484375 -6.84375 L 8.28125 -6.84375 C 8.0625 -6.84375 7.9375 -6.84375 7.828125 -6.59375 Z M 5.4375 -1.3125 "
             style="stroke:none;" />
        </symbol>
        <symbol
           id="textext-e2fd9b4b-2"
           overflow="visible">
          <path
             id="path8284"
             d=""
             style="stroke:none;" />
        </symbol>
        <symbol
           id="textext-e2fd9b4b-3"
           overflow="visible">
          <path
             id="path8287"
             d="M 6.84375 -3.265625 C 7 -3.265625 7.1875 -3.265625 7.1875 -3.453125 C 7.1875 -3.65625 7 -3.65625 6.859375 -3.65625 L 0.890625 -3.65625 C 0.75 -3.65625 0.5625 -3.65625 0.5625 -3.453125 C 0.5625 -3.265625 0.75 -3.265625 0.890625 -3.265625 Z M 6.859375 -1.328125 C 7 -1.328125 7.1875 -1.328125 7.1875 -1.53125 C 7.1875 -1.71875 7 -1.71875 6.84375 -1.71875 L 0.890625 -1.71875 C 0.75 -1.71875 0.5625 -1.71875 0.5625 -1.53125 C 0.5625 -1.328125 0.75 -1.328125 0.890625 -1.328125 Z M 6.859375 -1.328125 "
             style="stroke:none;" />
        </symbol>
        <symbol
           id="textext-e2fd9b4b-4"
           overflow="visible">
          <path
             id="path8290"
             d=""
             style="stroke:none;" />
        </symbol>
        <symbol
           id="textext-e2fd9b4b-5"
           overflow="visible">
          <path
             id="path8293"
             d="M 3.25 17.546875 L 3.9375 17.546875 L 3.9375 0.296875 L 6.5625 0.296875 L 6.5625 -0.390625 L 3.25 -0.390625 Z M 3.25 17.546875 "
             style="stroke:none;" />
        </symbol>
        <symbol
           id="textext-e2fd9b4b-6"
           overflow="visible">
          <path
             id="path8296"
             d="M 3.25 17.53125 L 6.5625 17.53125 L 6.5625 16.84375 L 3.9375 16.84375 L 3.9375 -0.40625 L 3.25 -0.40625 Z M 3.25 17.53125 "
             style="stroke:none;" />
        </symbol>
        <symbol
           id="textext-e2fd9b4b-7"
           overflow="visible">
          <path
             id="path8299"
             d="M 2.703125 17.546875 L 3.390625 17.546875 L 3.390625 -0.390625 L 0.0625 -0.390625 L 0.0625 0.296875 L 2.703125 0.296875 Z M 2.703125 17.546875 "
             style="stroke:none;" />
        </symbol>
        <symbol
           id="textext-e2fd9b4b-8"
           overflow="visible">
          <path
             id="path8302"
             d="M 2.703125 16.84375 L 0.0625 16.84375 L 0.0625 17.53125 L 3.390625 17.53125 L 3.390625 -0.40625 L 2.703125 -0.40625 Z M 2.703125 16.84375 "
             style="stroke:none;" />
        </symbol>
        <symbol
           id="textext-e2fd9b4b-9"
           overflow="visible">
          <path
             id="path8305"
             d=""
             style="stroke:none;" />
        </symbol>
        <symbol
           id="textext-e2fd9b4b-10"
           overflow="visible">
          <path
             id="path8308"
             d="M 4.828125 -4.09375 L 4 -6.078125 C 3.96875 -6.15625 3.953125 -6.203125 3.953125 -6.203125 C 3.953125 -6.265625 4.109375 -6.453125 4.53125 -6.5 C 4.640625 -6.515625 4.734375 -6.515625 4.734375 -6.6875 C 4.734375 -6.8125 4.609375 -6.8125 4.578125 -6.8125 C 4.171875 -6.8125 3.75 -6.78125 3.328125 -6.78125 C 3.078125 -6.78125 2.46875 -6.8125 2.21875 -6.8125 C 2.15625 -6.8125 2.03125 -6.8125 2.03125 -6.609375 C 2.03125 -6.5 2.140625 -6.5 2.265625 -6.5 C 2.859375 -6.5 2.921875 -6.40625 3.015625 -6.1875 L 4.1875 -3.40625 L 2.078125 -1.140625 L 1.953125 -1.03125 C 1.46875 -0.5 1 -0.34375 0.484375 -0.3125 C 0.359375 -0.296875 0.265625 -0.296875 0.265625 -0.109375 C 0.265625 -0.09375 0.265625 0 0.40625 0 C 0.703125 0 1.03125 -0.03125 1.328125 -0.03125 C 1.703125 -0.03125 2.09375 0 2.453125 0 C 2.515625 0 2.625 0 2.625 -0.203125 C 2.625 -0.296875 2.53125 -0.3125 2.515625 -0.3125 C 2.421875 -0.3125 2.109375 -0.34375 2.109375 -0.625 C 2.109375 -0.78125 2.265625 -0.9375 2.375 -1.0625 L 3.40625 -2.140625 L 4.296875 -3.125 L 5.296875 -0.734375 C 5.34375 -0.625 5.359375 -0.625 5.359375 -0.59375 C 5.359375 -0.515625 5.15625 -0.34375 4.78125 -0.3125 C 4.671875 -0.296875 4.578125 -0.296875 4.578125 -0.125 C 4.578125 0 4.6875 0 4.71875 0 C 5 0 5.703125 -0.03125 5.984375 -0.03125 C 6.234375 -0.03125 6.84375 0 7.09375 0 C 7.15625 0 7.28125 0 7.28125 -0.1875 C 7.28125 -0.3125 7.171875 -0.3125 7.09375 -0.3125 C 6.4375 -0.3125 6.40625 -0.34375 6.234375 -0.75 C 5.859375 -1.671875 5.1875 -3.234375 4.953125 -3.828125 C 5.625 -4.53125 6.671875 -5.71875 7 -5.984375 C 7.28125 -6.234375 7.671875 -6.46875 8.265625 -6.5 C 8.390625 -6.515625 8.484375 -6.515625 8.484375 -6.703125 C 8.484375 -6.703125 8.484375 -6.8125 8.359375 -6.8125 C 8.0625 -6.8125 7.71875 -6.78125 7.421875 -6.78125 C 7.046875 -6.78125 6.671875 -6.8125 6.3125 -6.8125 C 6.25 -6.8125 6.125 -6.8125 6.125 -6.609375 C 6.125 -6.546875 6.171875 -6.515625 6.234375 -6.5 C 6.328125 -6.484375 6.640625 -6.46875 6.640625 -6.1875 C 6.640625 -6.046875 6.53125 -5.921875 6.453125 -5.828125 Z M 4.828125 -4.09375 "
             style="stroke:none;" />
        </symbol>
        <symbol
           id="textext-e2fd9b4b-11"
           overflow="visible">
          <path
             id="path8311"
             d="M 5.953125 -5.671875 L 6.09375 -5.8125 C 6.390625 -6.109375 6.71875 -6.453125 7.390625 -6.5 C 7.5 -6.515625 7.59375 -6.515625 7.59375 -6.6875 C 7.59375 -6.765625 7.546875 -6.8125 7.46875 -6.8125 C 7.203125 -6.8125 6.921875 -6.78125 6.65625 -6.78125 C 6.3125 -6.78125 5.96875 -6.8125 5.65625 -6.8125 C 5.59375 -6.8125 5.46875 -6.8125 5.46875 -6.625 C 5.46875 -6.515625 5.5625 -6.5 5.609375 -6.5 C 5.6875 -6.5 5.96875 -6.484375 5.96875 -6.265625 C 5.96875 -6.09375 5.734375 -5.84375 5.703125 -5.796875 L 3.390625 -3.125 L 2.296875 -6.09375 C 2.234375 -6.234375 2.234375 -6.25 2.234375 -6.265625 C 2.234375 -6.5 2.71875 -6.5 2.828125 -6.5 C 2.953125 -6.5 3.0625 -6.5 3.0625 -6.703125 C 3.0625 -6.8125 2.9375 -6.8125 2.90625 -6.8125 C 2.625 -6.8125 1.9375 -6.78125 1.65625 -6.78125 C 1.40625 -6.78125 0.78125 -6.8125 0.53125 -6.8125 C 0.484375 -6.8125 0.34375 -6.8125 0.34375 -6.609375 C 0.34375 -6.5 0.453125 -6.5 0.578125 -6.5 C 1.171875 -6.5 1.21875 -6.40625 1.3125 -6.15625 L 2.53125 -2.875 C 2.546875 -2.84375 2.578125 -2.734375 2.578125 -2.71875 C 2.578125 -2.6875 2.171875 -1.078125 2.125 -0.890625 C 2 -0.34375 1.984375 -0.3125 1.1875 -0.3125 C 1 -0.3125 0.921875 -0.3125 0.921875 -0.109375 C 0.921875 0 1.03125 0 1.0625 0 C 1.328125 0 2.03125 -0.03125 2.3125 -0.03125 C 2.59375 -0.03125 3.3125 0 3.59375 0 C 3.65625 0 3.78125 0 3.78125 -0.203125 C 3.78125 -0.3125 3.6875 -0.3125 3.5 -0.3125 C 3.484375 -0.3125 3.296875 -0.3125 3.125 -0.328125 C 2.90625 -0.34375 2.84375 -0.375 2.84375 -0.484375 C 2.84375 -0.5625 2.9375 -0.90625 2.984375 -1.109375 L 3.34375 -2.515625 C 3.390625 -2.71875 3.40625 -2.734375 3.484375 -2.828125 Z M 5.953125 -5.671875 "
             style="stroke:none;" />
        </symbol>
        <symbol
           id="textext-e2fd9b4b-12"
           overflow="visible">
          <path
             id="path8314"
             d="M 7.171875 -6.5625 C 7.1875 -6.609375 7.203125 -6.65625 7.203125 -6.71875 C 7.203125 -6.8125 7.15625 -6.8125 6.953125 -6.8125 L 2.75 -6.8125 C 2.515625 -6.8125 2.5 -6.796875 2.4375 -6.609375 L 1.890625 -4.8125 C 1.875 -4.765625 1.859375 -4.6875 1.859375 -4.671875 C 1.859375 -4.671875 1.859375 -4.5625 1.984375 -4.5625 C 2.078125 -4.5625 2.09375 -4.640625 2.109375 -4.671875 C 2.5 -5.84375 3.015625 -6.5 4.5625 -6.5 L 6.1875 -6.5 L 0.625 -0.265625 C 0.625 -0.265625 0.578125 -0.125 0.578125 -0.09375 C 0.578125 0 0.640625 0 0.828125 0 L 5.15625 0 C 5.40625 0 5.40625 -0.015625 5.46875 -0.203125 L 6.1875 -2.40625 C 6.1875 -2.4375 6.21875 -2.515625 6.21875 -2.546875 C 6.21875 -2.609375 6.1875 -2.65625 6.09375 -2.65625 C 6 -2.65625 5.984375 -2.625 5.921875 -2.40625 C 5.484375 -1.0625 5 -0.34375 3.3125 -0.34375 L 1.609375 -0.34375 Z M 7.171875 -6.5625 "
             style="stroke:none;" />
        </symbol>
      </g>
    </defs>
    <g
       id="textext-e2fd9b4b-13">
      <g
         id="g8317"
         style="fill:rgb(0%,0%,0%);fill-opacity:1;">
        <use
           id="use8319"
           y="145.226"
           x="223.432"
           xlink:href="#textext-e2fd9b4b-1" />
      </g>
      <g
         id="g8321"
         style="fill:rgb(0%,0%,0%);fill-opacity:1;">
        <use
           id="use8323"
           y="145.226"
           x="237.075"
           xlink:href="#textext-e2fd9b4b-3" />
      </g>
      <g
         id="g8325"
         style="fill:rgb(0%,0%,0%);fill-opacity:1;">
        <use
           id="use8327"
           y="125.201"
           x="247.591"
           xlink:href="#textext-e2fd9b4b-5" />
      </g>
      <g
         id="g8329"
         style="fill:rgb(0%,0%,0%);fill-opacity:1;">
        <use
           id="use8331"
           y="143.134"
           x="247.591"
           xlink:href="#textext-e2fd9b4b-6" />
      </g>
      <g
         id="g8333"
         style="fill:rgb(0%,0%,0%);fill-opacity:1;">
        <use
           id="use8335"
           y="133.171"
           x="259.214"
           xlink:href="#textext-e2fd9b4b-10" />
      </g>
      <g
         id="g8337"
         style="fill:rgb(0%,0%,0%);fill-opacity:1;">
        <use
           id="use8339"
           y="145.126"
           x="259.733"
           xlink:href="#textext-e2fd9b4b-11" />
      </g>
      <g
         id="g8341"
         style="fill:rgb(0%,0%,0%);fill-opacity:1;">
        <use
           id="use8343"
           y="157.081"
           x="259.975"
           xlink:href="#textext-e2fd9b4b-12" />
      </g>
      <g
         id="g8345"
         style="fill:rgb(0%,0%,0%);fill-opacity:1;">
        <use
           id="use8347"
           y="125.201"
           x="273.231"
           xlink:href="#textext-e2fd9b4b-7" />
      </g>
      <g
         id="g8349"
         style="fill:rgb(0%,0%,0%);fill-opacity:1;">
        <use
           id="use8351"
           y="143.134"
           x="273.231"
           xlink:href="#textext-e2fd9b4b-8" />
      </g>
    </g>
  </g>
  <g
     ns0:text="$\\mathbf{C}$"
     ns0:preamble=""
     transform="matrix(2.4567383,0,0,2.4567383,-537.4807,-162.95698)"
     id="g8725">
    <defs
       id="defs8727">
      <g
         id="g8729">
        <symbol
           style="overflow:visible"
           overflow="visible"
           id="textext-f4b93239-0">
          <path
             inkscape:connector-curvature="0"
             style="stroke:none"
             d=""
             id="path8732" />
        </symbol>
        <symbol
           style="overflow:visible"
           overflow="visible"
           id="textext-f4b93239-1">
          <path
             inkscape:connector-curvature="0"
             style="stroke:none"
             d="m 7.640625,-6.671875 c 0,-0.1875 0,-0.28125 -0.1875,-0.28125 -0.09375,0 -0.109375,0.03125 -0.1875,0.09375 l -0.65625,0.59375 c -0.625,-0.5 -1.28125,-0.6875 -1.96875,-0.6875 -2.484375,0 -4,1.484375 -4,3.53125 0,2.046875 1.515625,3.53125 4,3.53125 1.875,0 3,-1.21875 3,-2.375 0,-0.203125 -0.078125,-0.203125 -0.25,-0.203125 -0.125,0 -0.21875,0 -0.21875,0.171875 -0.078125,1.328125 -1.28125,1.9375 -2.28125,1.9375 -0.78125,0 -1.625,-0.234375 -2.140625,-0.84375 -0.46875,-0.578125 -0.59375,-1.3125 -0.59375,-2.21875 0,-0.5625 0.03125,-1.625 0.671875,-2.296875 0.640625,-0.65625 1.515625,-0.765625 2.03125,-0.765625 1.078125,0 2.015625,0.765625 2.234375,2.03125 C 7.125,-4.265625 7.140625,-4.25 7.359375,-4.25 c 0.265625,0 0.28125,-0.015625 0.28125,-0.28125 z m 0,0"
             id="path8735" />
        </symbol>
      </g>
    </defs>
    <g
       id="textext-f4b93239-2">
      <g
         style="fill:#000000;fill-opacity:1"
         id="g8738">
        <use
           height="226"
           width="462"
           xlink:href="#textext-f4b93239-1"
           x="223.43201"
           y="134.765"
           id="use8740" />
      </g>
    </g>
  </g>
  <g
     id="g9096"
     transform="matrix(2.7833584,0,0,2.7833584,-344.13579,-164.54758)"
     ns0:preamble=""
     ns0:text="$\\mathbf{(R, t)}$">
    <defs
       id="defs9098">
      <g
         id="g9100">
        <symbol
           id="textext-e4119117-0"
           overflow="visible">
          <path
             id="path9103"
             d=""
             style="stroke:none;" />
        </symbol>
        <symbol
           id="textext-e4119117-1"
           overflow="visible">
          <path
             id="path9106"
             d="M 3.296875 2.390625 C 3.296875 2.359375 3.296875 2.34375 3.125 2.171875 C 1.890625 0.921875 1.5625 -0.96875 1.5625 -2.5 C 1.5625 -4.234375 1.9375 -5.96875 3.171875 -7.203125 C 3.296875 -7.328125 3.296875 -7.34375 3.296875 -7.375 C 3.296875 -7.453125 3.265625 -7.484375 3.203125 -7.484375 C 3.09375 -7.484375 2.203125 -6.796875 1.609375 -5.53125 C 1.109375 -4.4375 0.984375 -3.328125 0.984375 -2.5 C 0.984375 -1.71875 1.09375 -0.515625 1.640625 0.625 C 2.25 1.84375 3.09375 2.5 3.203125 2.5 C 3.265625 2.5 3.296875 2.46875 3.296875 2.390625 Z M 3.296875 2.390625 "
             style="stroke:none;" />
        </symbol>
        <symbol
           id="textext-e4119117-2"
           overflow="visible">
          <path
             id="path9109"
             d="M 2.875 -2.5 C 2.875 -3.265625 2.765625 -4.46875 2.21875 -5.609375 C 1.625 -6.828125 0.765625 -7.484375 0.671875 -7.484375 C 0.609375 -7.484375 0.5625 -7.4375 0.5625 -7.375 C 0.5625 -7.34375 0.5625 -7.328125 0.75 -7.140625 C 1.734375 -6.15625 2.296875 -4.578125 2.296875 -2.5 C 2.296875 -0.78125 1.9375 0.96875 0.703125 2.21875 C 0.5625 2.34375 0.5625 2.359375 0.5625 2.390625 C 0.5625 2.453125 0.609375 2.5 0.671875 2.5 C 0.765625 2.5 1.671875 1.8125 2.25 0.546875 C 2.765625 -0.546875 2.875 -1.65625 2.875 -2.5 Z M 2.875 -2.5 "
             style="stroke:none;" />
        </symbol>
        <symbol
           id="textext-e4119117-3"
           overflow="visible">
          <path
             id="path9112"
             d=""
             style="stroke:none;" />
        </symbol>
        <symbol
           id="textext-e4119117-4"
           overflow="visible">
          <path
             id="path9115"
             d="M 2.828125 -3.59375 L 2.828125 -6.375 L 4 -6.375 C 5.609375 -6.375 5.625 -5.59375 5.625 -4.984375 C 5.625 -4.421875 5.625 -3.59375 3.984375 -3.59375 Z M 5.484375 -3.390625 C 6.640625 -3.6875 7.140625 -4.34375 7.140625 -5 C 7.140625 -6 6.046875 -6.84375 4.171875 -6.84375 L 0.390625 -6.84375 L 0.390625 -6.375 L 1.46875 -6.375 L 1.46875 -0.46875 L 0.390625 -0.46875 L 0.390625 0 C 0.75 -0.03125 1.71875 -0.03125 2.140625 -0.03125 C 2.5625 -0.03125 3.53125 -0.03125 3.890625 0 L 3.890625 -0.46875 L 2.828125 -0.46875 L 2.828125 -3.234375 L 3.984375 -3.234375 C 4.125 -3.234375 4.5625 -3.234375 4.875 -2.90625 C 5.1875 -2.546875 5.1875 -2.359375 5.1875 -1.640625 C 5.1875 -0.984375 5.1875 -0.484375 5.890625 -0.15625 C 6.328125 0.0625 6.953125 0.109375 7.359375 0.109375 C 8.421875 0.109375 8.546875 -0.78125 8.546875 -0.953125 C 8.546875 -1.171875 8.40625 -1.171875 8.3125 -1.171875 C 8.109375 -1.171875 8.09375 -1.0625 8.078125 -0.9375 C 8.03125 -0.46875 7.75 -0.25 7.453125 -0.25 C 6.84375 -0.25 6.765625 -0.953125 6.703125 -1.375 C 6.6875 -1.484375 6.609375 -2.171875 6.59375 -2.21875 C 6.453125 -2.921875 5.90625 -3.234375 5.484375 -3.390625 Z M 5.484375 -3.390625 "
             style="stroke:none;" />
        </symbol>
        <symbol
           id="textext-e4119117-5"
           overflow="visible">
          <path
             id="path9118"
             d="M 1.03125 -3.953125 L 1.03125 -1.21875 C 1.03125 -0.15625 1.890625 0.0625 2.609375 0.0625 C 3.359375 0.0625 3.8125 -0.515625 3.8125 -1.234375 L 3.8125 -1.765625 L 3.34375 -1.765625 L 3.34375 -1.25 C 3.34375 -0.578125 3.015625 -0.34375 2.734375 -0.34375 C 2.15625 -0.34375 2.15625 -0.984375 2.15625 -1.203125 L 2.15625 -3.953125 L 3.625 -3.953125 L 3.625 -4.421875 L 2.15625 -4.421875 L 2.15625 -6.328125 L 1.6875 -6.328125 C 1.6875 -5.328125 1.203125 -4.34375 0.203125 -4.3125 L 0.203125 -3.953125 Z M 1.03125 -3.953125 "
             style="stroke:none;" />
        </symbol>
        <symbol
           id="textext-e4119117-6"
           overflow="visible">
          <path
             id="path9121"
             d=""
             style="stroke:none;" />
        </symbol>
        <symbol
           id="textext-e4119117-7"
           overflow="visible">
          <path
             id="path9124"
             d="M 2.03125 -0.015625 C 2.03125 -0.671875 1.78125 -1.0625 1.390625 -1.0625 C 1.0625 -1.0625 0.859375 -0.8125 0.859375 -0.53125 C 0.859375 -0.265625 1.0625 0 1.390625 0 C 1.5 0 1.640625 -0.046875 1.734375 -0.125 C 1.765625 -0.15625 1.78125 -0.15625 1.78125 -0.15625 C 1.796875 -0.15625 1.796875 -0.15625 1.796875 -0.015625 C 1.796875 0.734375 1.453125 1.328125 1.125 1.65625 C 1.015625 1.765625 1.015625 1.78125 1.015625 1.8125 C 1.015625 1.890625 1.0625 1.921875 1.109375 1.921875 C 1.21875 1.921875 2.03125 1.15625 2.03125 -0.015625 Z M 2.03125 -0.015625 "
             style="stroke:none;" />
        </symbol>
      </g>
    </defs>
    <g
       id="textext-e4119117-8">
      <g
         id="g9127"
         style="fill:rgb(0%,0%,0%);fill-opacity:1;">
        <use
           id="use9129"
           y="134.765"
           x="223.432"
           xlink:href="#textext-e4119117-1" />
      </g>
      <g
         id="g9131"
         style="fill:rgb(0%,0%,0%);fill-opacity:1;">
        <use
           id="use9133"
           y="134.765"
           x="227.306"
           xlink:href="#textext-e4119117-4" />
      </g>
      <g
         id="g9135"
         style="fill:rgb(0%,0%,0%);fill-opacity:1;">
        <use
           id="use9137"
           y="134.765"
           x="235.899"
           xlink:href="#textext-e4119117-7" />
      </g>
      <g
         id="g9139"
         style="fill:rgb(0%,0%,0%);fill-opacity:1;">
        <use
           id="use9141"
           y="134.765"
           x="240.327"
           xlink:href="#textext-e4119117-5" />
      </g>
      <g
         id="g9143"
         style="fill:rgb(0%,0%,0%);fill-opacity:1;">
        <use
           id="use9145"
           y="134.765"
           x="244.782"
           xlink:href="#textext-e4119117-2" />
      </g>
    </g>
  </g>
  <g
     id="g3957"
     transform="matrix(2.2099791,0,0,2.2099791,-429.88795,-251.71175)"
     ns0:preamble=""
     ns0:text="$\\mathbf{u}$">
    <defs
       id="defs3959">
      <g
         id="g3961">
        <symbol
           id="textext-7d889b9a-0"
           overflow="visible"
           style="overflow:visible">
          <path
             id="path3964"
             d=""
             style="stroke:none"
             inkscape:connector-curvature="0" />
        </symbol>
        <symbol
           id="textext-7d889b9a-1"
           overflow="visible"
           style="overflow:visible">
          <path
             id="path3967"
             d="m 4.359375,-0.71875 0,0.78125 L 6.125,0 l 0,-0.46875 c -0.609375,0 -0.6875,0 -0.6875,-0.390625 l 0,-3.625 -1.8125,0.078125 0,0.46875 c 0.609375,0 0.6875,0 0.6875,0.390625 l 0,1.90625 c 0,0.8125 -0.515625,1.34375 -1.234375,1.34375 -0.78125,0 -0.8125,-0.25 -0.8125,-0.796875 l 0,-3.390625 -1.8125,0.078125 0,0.46875 c 0.609375,0 0.6875,0 0.6875,0.390625 l 0,2.328125 c 0,1.0625 0.796875,1.28125 1.796875,1.28125 0.25,0 0.96875,0 1.421875,-0.78125 z m 0,0"
             style="stroke:none"
             inkscape:connector-curvature="0" />
        </symbol>
      </g>
    </defs>
    <g
       id="textext-7d889b9a-2">
      <g
         id="g3970"
         style="fill:#000000;fill-opacity:1">
        <use
           id="use3972"
           y="134.765"
           x="223.43201"
           xlink:href="#textext-7d889b9a-1"
           width="462"
           height="226" />
      </g>
    </g>
  </g>
  <g
     ns0:text="$\\mathbf{v}$"
     ns0:preamble=""
     transform="matrix(2.2099791,0,0,2.2099791,-463.2469,-229.34999)"
     id="g4411">
    <defs
       id="defs4413">
      <g
         id="g4415">
        <symbol
           overflow="visible"
           id="textext-8daaecaa-0">
          <path
             style="stroke:none;"
             d=""
             id="path4418" />
        </symbol>
        <symbol
           overflow="visible"
           id="textext-8daaecaa-1">
          <path
             style="stroke:none;"
             d="M 5.046875 -3.75 C 5.109375 -3.890625 5.140625 -3.953125 5.78125 -3.953125 L 5.78125 -4.421875 C 5.53125 -4.40625 5.25 -4.390625 5 -4.390625 C 4.75 -4.390625 4.296875 -4.421875 4.09375 -4.421875 L 4.09375 -3.953125 C 4.28125 -3.953125 4.5625 -3.921875 4.5625 -3.84375 C 4.5625 -3.84375 4.5625 -3.8125 4.515625 -3.734375 L 3.359375 -1.234375 L 2.09375 -3.953125 L 2.625 -3.953125 L 2.625 -4.421875 C 2.296875 -4.40625 1.40625 -4.390625 1.390625 -4.390625 C 1.109375 -4.390625 0.671875 -4.421875 0.265625 -4.421875 L 0.265625 -3.953125 L 0.890625 -3.953125 L 2.640625 -0.203125 C 2.765625 0.046875 2.890625 0.046875 3.015625 0.046875 C 3.1875 0.046875 3.296875 0.015625 3.390625 -0.203125 Z M 5.046875 -3.75 "
             id="path4421" />
        </symbol>
      </g>
    </defs>
    <g
       id="textext-8daaecaa-2">
      <g
         style="fill:rgb(0%,0%,0%);fill-opacity:1;"
         id="g4424">
        <use
           xlink:href="#textext-8daaecaa-1"
           x="223.432"
           y="134.765"
           id="use4426" />
      </g>
    </g>
  </g>
  <g
     id="g3363"
     ns0:preamble=""
     ns0:text="retina"
     transform="matrix(2.0097317,0,0,1.8258486,-331.36241,-182.32277)">
    <defs
       id="defs3365">
      <g
         id="g3367">
        <symbol
           id="textext-d3fb49e8-0"
           overflow="visible"
           style="overflow:visible">
          <path
             id="path3370"
             d=""
             style="stroke:none"
             inkscape:connector-curvature="0" />
        </symbol>
        <symbol
           id="textext-d3fb49e8-1"
           overflow="visible"
           style="overflow:visible">
          <path
             id="path3373"
             d="m 1.671875,-3.3125 0,-1.09375 -1.390625,0.109375 0,0.3125 c 0.703125,0 0.78125,0.0625 0.78125,0.5625 l 0,2.671875 c 0,0.4375 -0.109375,0.4375 -0.78125,0.4375 l 0,0.3125 c 0.390625,-0.015625 0.859375,-0.03125 1.140625,-0.03125 0.390625,0 0.859375,0 1.265625,0.03125 l 0,-0.3125 -0.21875,0 c -0.734375,0 -0.75,-0.109375 -0.75,-0.46875 l 0,-1.53125 c 0,-0.984375 0.421875,-1.875 1.171875,-1.875 0.0625,0 0.09375,0 0.109375,0.015625 -0.03125,0 -0.234375,0.125 -0.234375,0.390625 0,0.265625 0.21875,0.421875 0.4375,0.421875 0.171875,0 0.421875,-0.125 0.421875,-0.4375 0,-0.3125 -0.3125,-0.609375 -0.734375,-0.609375 -0.734375,0 -1.09375,0.671875 -1.21875,1.09375 z m 0,0"
             style="stroke:none"
             inkscape:connector-curvature="0" />
        </symbol>
        <symbol
           id="textext-d3fb49e8-2"
           overflow="visible"
           style="overflow:visible">
          <path
             id="path3376"
             d="M 1.109375,-2.515625 C 1.171875,-4 2.015625,-4.25 2.359375,-4.25 c 1.015625,0 1.125,1.34375 1.125,1.734375 z m 0,0.21875 2.78125,0 c 0.21875,0 0.25,0 0.25,-0.21875 0,-0.984375 -0.546875,-1.953125 -1.78125,-1.953125 -1.15625,0 -2.078125,1.03125 -2.078125,2.28125 0,1.328125 1.046875,2.296875 2.1875,2.296875 C 3.6875,0.109375 4.140625,-1 4.140625,-1.1875 4.140625,-1.28125 4.0625,-1.3125 4,-1.3125 c -0.078125,0 -0.109375,0.0625 -0.125,0.140625 -0.34375,1.03125 -1.25,1.03125 -1.34375,1.03125 -0.5,0 -0.890625,-0.296875 -1.125,-0.671875 -0.296875,-0.46875 -0.296875,-1.125 -0.296875,-1.484375 z m 0,0"
             style="stroke:none"
             inkscape:connector-curvature="0" />
        </symbol>
        <symbol
           id="textext-d3fb49e8-3"
           overflow="visible"
           style="overflow:visible">
          <path
             id="path3379"
             d="m 1.71875,-3.984375 1.4375,0 0,-0.3125 -1.4375,0 0,-1.828125 -0.25,0 c 0,0.8125 -0.296875,1.875 -1.28125,1.921875 l 0,0.21875 0.84375,0 0,2.75 c 0,1.21875 0.9375,1.34375 1.296875,1.34375 0.703125,0 0.984375,-0.703125 0.984375,-1.34375 l 0,-0.5625 -0.25,0 0,0.546875 c 0,0.734375 -0.296875,1.109375 -0.671875,1.109375 -0.671875,0 -0.671875,-0.90625 -0.671875,-1.078125 z m 0,0"
             style="stroke:none"
             inkscape:connector-curvature="0" />
        </symbol>
        <symbol
           id="textext-d3fb49e8-4"
           overflow="visible"
           style="overflow:visible">
          <path
             id="path3382"
             d="M 1.765625,-4.40625 0.375,-4.296875 l 0,0.3125 c 0.640625,0 0.734375,0.0625 0.734375,0.546875 l 0,2.6875 c 0,0.4375 -0.109375,0.4375 -0.78125,0.4375 l 0,0.3125 C 0.640625,-0.015625 1.1875,-0.03125 1.421875,-0.03125 1.78125,-0.03125 2.125,-0.015625 2.46875,0 l 0,-0.3125 c -0.671875,0 -0.703125,-0.046875 -0.703125,-0.4375 z m 0.03125,-1.734375 c 0,-0.3125 -0.234375,-0.53125 -0.515625,-0.53125 -0.3125,0 -0.53125,0.265625 -0.53125,0.53125 0,0.265625 0.21875,0.53125 0.53125,0.53125 0.28125,0 0.515625,-0.21875 0.515625,-0.53125 z m 0,0"
             style="stroke:none"
             inkscape:connector-curvature="0" />
        </symbol>
        <symbol
           id="textext-d3fb49e8-5"
           overflow="visible"
           style="overflow:visible">
          <path
             id="path3385"
             d="m 1.09375,-3.421875 0,2.671875 c 0,0.4375 -0.109375,0.4375 -0.78125,0.4375 l 0,0.3125 c 0.359375,-0.015625 0.859375,-0.03125 1.140625,-0.03125 0.25,0 0.765625,0.015625 1.109375,0.03125 l 0,-0.3125 c -0.671875,0 -0.78125,0 -0.78125,-0.4375 l 0,-1.84375 C 1.78125,-3.625 2.5,-4.1875 3.125,-4.1875 c 0.640625,0 0.75,0.53125 0.75,1.109375 l 0,2.328125 c 0,0.4375 -0.109375,0.4375 -0.78125,0.4375 l 0,0.3125 c 0.34375,-0.015625 0.859375,-0.03125 1.125,-0.03125 0.25,0 0.78125,0.015625 1.109375,0.03125 l 0,-0.3125 c -0.515625,0 -0.765625,0 -0.765625,-0.296875 l 0,-1.90625 c 0,-0.859375 0,-1.15625 -0.3125,-1.515625 -0.140625,-0.171875 -0.46875,-0.375 -1.046875,-0.375 C 2.46875,-4.40625 2,-3.984375 1.71875,-3.359375 l 0,-1.046875 -1.40625,0.109375 0,0.3125 c 0.703125,0 0.78125,0.0625 0.78125,0.5625 z m 0,0"
             style="stroke:none"
             inkscape:connector-curvature="0" />
        </symbol>
        <symbol
           id="textext-d3fb49e8-6"
           overflow="visible"
           style="overflow:visible">
          <path
             id="path3388"
             d="m 3.3125,-0.75 c 0.046875,0.390625 0.3125,0.8125 0.78125,0.8125 0.21875,0 0.828125,-0.140625 0.828125,-0.953125 l 0,-0.5625 -0.25,0 0,0.5625 c 0,0.578125 -0.25,0.640625 -0.359375,0.640625 -0.328125,0 -0.375,-0.453125 -0.375,-0.5 l 0,-1.984375 c 0,-0.421875 0,-0.8125 -0.359375,-1.1875 C 3.1875,-4.3125 2.6875,-4.46875 2.21875,-4.46875 c -0.828125,0 -1.515625,0.46875 -1.515625,1.125 0,0.296875 0.203125,0.46875 0.46875,0.46875 0.28125,0 0.453125,-0.203125 0.453125,-0.453125 0,-0.125 -0.046875,-0.453125 -0.515625,-0.453125 C 1.390625,-4.140625 1.875,-4.25 2.1875,-4.25 c 0.5,0 1.0625,0.390625 1.0625,1.28125 l 0,0.359375 c -0.515625,0.03125 -1.203125,0.0625 -1.828125,0.359375 -0.75,0.34375 -1,0.859375 -1,1.296875 0,0.8125 0.96875,1.0625 1.59375,1.0625 0.65625,0 1.109375,-0.40625 1.296875,-0.859375 z M 3.25,-2.390625 l 0,1 c 0,0.9375 -0.71875,1.28125 -1.171875,1.28125 -0.484375,0 -0.890625,-0.34375 -0.890625,-0.84375 0,-0.546875 0.421875,-1.375 2.0625,-1.4375 z m 0,0"
             style="stroke:none"
             inkscape:connector-curvature="0" />
        </symbol>
      </g>
    </defs>
    <g
       id="textext-d3fb49e8-7">
      <g
         id="g3391"
         style="fill:#000000;fill-opacity:1">
        <use
           id="use3393"
           y="134.765"
           x="223.43201"
           xlink:href="#textext-d3fb49e8-1"
           width="462"
           height="226" />
        <use
           id="use3395"
           y="134.765"
           x="227.33435"
           xlink:href="#textext-d3fb49e8-2"
           width="462"
           height="226" />
        <use
           id="use3397"
           y="134.765"
           x="231.76173"
           xlink:href="#textext-d3fb49e8-3"
           width="462"
           height="226" />
        <use
           id="use3399"
           y="134.765"
           x="235.63618"
           xlink:href="#textext-d3fb49e8-4"
           width="462"
           height="226" />
        <use
           id="use3401"
           y="134.765"
           x="238.40379"
           xlink:href="#textext-d3fb49e8-5"
           width="462"
           height="226" />
        <use
           id="use3403"
           y="134.765"
           x="243.93901"
           xlink:href="#textext-d3fb49e8-6"
           width="462"
           height="226" />
      </g>
    </g>
  </g>
</svg>
