<?xml version="1.0" encoding="UTF-8" standalone="no"?>
<!-- Created with Inkscape (http://www.inkscape.org/) -->

<svg
   xmlns:ns0="http://www.iki.fi/pav/software/textext/"
   xmlns:dc="http://purl.org/dc/elements/1.1/"
   xmlns:cc="http://creativecommons.org/ns#"
   xmlns:rdf="http://www.w3.org/1999/02/22-rdf-syntax-ns#"
   xmlns:svg="http://www.w3.org/2000/svg"
   xmlns="http://www.w3.org/2000/svg"
   xmlns:xlink="http://www.w3.org/1999/xlink"
   xmlns:sodipodi="http://sodipodi.sourceforge.net/DTD/sodipodi-0.dtd"
   xmlns:inkscape="http://www.inkscape.org/namespaces/inkscape"
   sodipodi:docname="pinhole_camara.pdf"
   height="266"
   width="402"
   inkscape:version="0.48.4 r9939"
   version="1.1"
   id="svg2">
  <sodipodi:namedview
     pagecolor="#ffffff"
     bordercolor="#666666"
     borderopacity="1"
     objecttolerance="10"
     gridtolerance="10"
     guidetolerance="10"
     inkscape:pageopacity="0"
     inkscape:pageshadow="2"
     inkscape:window-width="1920"
     inkscape:window-height="1031"
     id="namedview4"
     showgrid="false"
     inkscape:zoom="2.5094316"
     inkscape:cx="167.96062"
     inkscape:cy="154.83052"
     inkscape:window-x="0"
     inkscape:window-y="25"
     inkscape:window-maximized="1"
     inkscape:current-layer="svg2" />
  <metadata
     id="metadata8">
    <rdf:RDF>
      <cc:Work
         rdf:about="">
        <dc:format>image/svg+xml</dc:format>
        <dc:type
           rdf:resource="http://purl.org/dc/dcmitype/StillImage" />
        <dc:title></dc:title>
      </cc:Work>
    </rdf:RDF>
  </metadata>
  <defs
     id="defs6" />
  <path
     inkscape:connector-curvature="0"
     id="path3005"
     d="m 259.8198,12.962164 133.49636,37.458682 0.3985,157.406164 -135.88735,-43.83463 z"
     style="fill:none;stroke:#000000;stroke-width:2;stroke-linecap:butt;stroke-linejoin:miter;stroke-miterlimit:4;stroke-opacity:1;stroke-dasharray:none" />
  <path
     sodipodi:nodetypes="cc"
     inkscape:connector-curvature="0"
     id="path6305"
     d="M 223.94612,118.37911 300.96457,67.747932"
     style="fill:none;stroke:#0000ff;stroke-width:2;stroke-linecap:butt;stroke-linejoin:miter;stroke-miterlimit:4;stroke-opacity:1;stroke-dasharray:none" />
  <path
     sodipodi:nodetypes="cc"
     inkscape:connector-curvature="0"
     id="path2989"
     d="M 169.16182,152.02997 223.05848,118.7555"
     style="fill:none;stroke:#0000ff;stroke-width:2;stroke-linecap:butt;stroke-linejoin:miter;stroke-opacity:1;stroke-miterlimit:4;stroke-dasharray:6, 6;stroke-dashoffset:0" />
  <path
     inkscape:connector-curvature="0"
     id="path2995"
     d="m 169.75956,154.02245 73.32338,-3.18797"
     style="fill:none;stroke:#0000ff;stroke-width:2;stroke-linecap:butt;stroke-linejoin:miter;stroke-opacity:1;stroke-miterlimit:4;stroke-dasharray:6, 6;stroke-dashoffset:0" />
  <path
     sodipodi:nodetypes="ccc"
     inkscape:connector-curvature="0"
     id="path2997"
     d="m 245.07542,150.43598 54.99253,-3.18797 0.33306,-0.006"
     style="fill:none;stroke:#0000ff;stroke-width:2;stroke-linecap:butt;stroke-linejoin:miter;stroke-miterlimit:4;stroke-opacity:1;stroke-dasharray:none" />
  <path
     inkscape:connector-curvature="0"
     id="path3003"
     d="m 107.99258,71.53365 135.09036,54.59404 1.59398,114.76702 -137.08283,-61.76697 z"
     style="fill:none;stroke:#000000;stroke-width:2;stroke-linecap:butt;stroke-linejoin:miter;stroke-opacity:1;stroke-miterlimit:4;stroke-dasharray:none" />
  <path
     sodipodi:nodetypes="ccc"
     inkscape:connector-curvature="0"
     id="path6285"
     d="m 18.779154,242.43889 144.934836,-87.17829 0,-0.28178"
     style="fill:none;stroke:#0000ff;stroke-width:2;stroke-linecap:butt;stroke-linejoin:miter;stroke-miterlimit:4;stroke-opacity:1;stroke-dasharray:none" />
  <path
     style="fill:#000000;fill-opacity:1;stroke:#000000;stroke-width:0.33740704999999999;stroke-miterlimit:4;stroke-opacity:0.58267720999999995;stroke-dashoffset:0"
     d="m 24.184078,171.79094 c -0.05272,0.007 -9.849062,0.0755 -9.849062,0.0755 l 4.828935,-9.89717 z"
     id="rect3037-5"
     inkscape:connector-curvature="0"
     sodipodi:nodetypes="cccc" />
  <path
     sodipodi:nodetypes="cc"
     inkscape:connector-curvature="0"
     id="path2993"
     d="M 19.105738,161.53656 162.73606,154.76963"
     style="fill:none;stroke:#0000ff;stroke-width:2;stroke-linecap:butt;stroke-linejoin:miter;stroke-miterlimit:4;stroke-opacity:1;stroke-dasharray:none" />
  <path
     style="fill:#000000;fill-opacity:1;stroke:#000000;stroke-width:0.33740705;stroke-miterlimit:4;stroke-opacity:0.58267721;stroke-dashoffset:0"
     d="m 295.32776,138.0348 c 0.0527,-0.007 9.84907,-0.0755 9.84907,-0.0755 l -4.82894,9.89715 z"
     id="rect3037-5-0"
     inkscape:connector-curvature="0"
     sodipodi:nodetypes="cccc" />
  <path
     id="path3926-6"
     sodipodi:type="arc"
     style="fill:#000000;fill-opacity:1;stroke:#000000;stroke-width:2;stroke-miterlimit:4;stroke-opacity:1;stroke-dasharray:none;stroke-dashoffset:0"
     sodipodi:cx="38.466812"
     sodipodi:cy="162.37543"
     sodipodi:rx="3.4849138"
     sodipodi:ry="3.4849138"
     d="m 41.951726,162.37543 a 3.4849138,3.4849138 0 1 1 -6.969828,0 3.4849138,3.4849138 0 1 1 6.969828,0 z"
     transform="translate(127.49898,-8.1475213)" />
  <g
     id="g4038"
     ns0:preamble=""
     ns0:text="Pinhole"
     transform="matrix(1.8234979,0,0,1.8234979,-287.97378,-104.86961)">
    <defs
       id="defs4040">
      <g
         id="g4042">
        <symbol
           id="textext-eaf6471e-0"
           overflow="visible"
           style="overflow:visible">
          <path
             id="path4045"
             d=""
             style="stroke:none"
             inkscape:connector-curvature="0" />
        </symbol>
        <symbol
           id="textext-eaf6471e-1"
           overflow="visible"
           style="overflow:visible">
          <path
             id="path4048"
             d="m 2.265625,-3.15625 1.6875,0 c 1.1875,0 2.265625,-0.796875 2.265625,-1.796875 C 6.21875,-5.9375 5.234375,-6.8125 3.875,-6.8125 l -3.53125,0 0,0.3125 0.25,0 c 0.765625,0 0.78125,0.109375 0.78125,0.46875 l 0,5.25 c 0,0.359375 -0.015625,0.46875 -0.78125,0.46875 l -0.25,0 0,0.3125 c 0.359375,-0.03125 1.09375,-0.03125 1.46875,-0.03125 0.375,0 1.125,0 1.484375,0.03125 l 0,-0.3125 -0.25,0 c -0.765625,0 -0.78125,-0.109375 -0.78125,-0.46875 z m -0.03125,-0.25 0,-2.6875 C 2.234375,-6.4375 2.25,-6.5 2.71875,-6.5 l 0.890625,0 c 1.578125,0 1.578125,1.0625 1.578125,1.546875 0,0.46875 0,1.546875 -1.578125,1.546875 z m 0,0"
             style="stroke:none"
             inkscape:connector-curvature="0" />
        </symbol>
        <symbol
           id="textext-eaf6471e-2"
           overflow="visible"
           style="overflow:visible">
          <path
             id="path4051"
             d="M 1.765625,-4.40625 0.375,-4.296875 l 0,0.3125 c 0.640625,0 0.734375,0.0625 0.734375,0.546875 l 0,2.6875 c 0,0.4375 -0.109375,0.4375 -0.78125,0.4375 l 0,0.3125 C 0.640625,-0.015625 1.1875,-0.03125 1.421875,-0.03125 1.78125,-0.03125 2.125,-0.015625 2.46875,0 l 0,-0.3125 c -0.671875,0 -0.703125,-0.046875 -0.703125,-0.4375 z m 0.03125,-1.734375 c 0,-0.3125 -0.234375,-0.53125 -0.515625,-0.53125 -0.3125,0 -0.53125,0.265625 -0.53125,0.53125 0,0.265625 0.21875,0.53125 0.53125,0.53125 0.28125,0 0.515625,-0.21875 0.515625,-0.53125 z m 0,0"
             style="stroke:none"
             inkscape:connector-curvature="0" />
        </symbol>
        <symbol
           id="textext-eaf6471e-3"
           overflow="visible"
           style="overflow:visible">
          <path
             id="path4054"
             d="m 1.09375,-3.421875 0,2.671875 c 0,0.4375 -0.109375,0.4375 -0.78125,0.4375 l 0,0.3125 c 0.359375,-0.015625 0.859375,-0.03125 1.140625,-0.03125 0.25,0 0.765625,0.015625 1.109375,0.03125 l 0,-0.3125 c -0.671875,0 -0.78125,0 -0.78125,-0.4375 l 0,-1.84375 C 1.78125,-3.625 2.5,-4.1875 3.125,-4.1875 c 0.640625,0 0.75,0.53125 0.75,1.109375 l 0,2.328125 c 0,0.4375 -0.109375,0.4375 -0.78125,0.4375 l 0,0.3125 c 0.34375,-0.015625 0.859375,-0.03125 1.125,-0.03125 0.25,0 0.78125,0.015625 1.109375,0.03125 l 0,-0.3125 c -0.515625,0 -0.765625,0 -0.765625,-0.296875 l 0,-1.90625 c 0,-0.859375 0,-1.15625 -0.3125,-1.515625 -0.140625,-0.171875 -0.46875,-0.375 -1.046875,-0.375 C 2.46875,-4.40625 2,-3.984375 1.71875,-3.359375 l 0,-1.046875 -1.40625,0.109375 0,0.3125 c 0.703125,0 0.78125,0.0625 0.78125,0.5625 z m 0,0"
             style="stroke:none"
             inkscape:connector-curvature="0" />
        </symbol>
        <symbol
           id="textext-eaf6471e-4"
           overflow="visible"
           style="overflow:visible">
          <path
             id="path4057"
             d="m 1.09375,-0.75 c 0,0.4375 -0.109375,0.4375 -0.78125,0.4375 l 0,0.3125 c 0.359375,-0.015625 0.859375,-0.03125 1.140625,-0.03125 0.25,0 0.765625,0.015625 1.109375,0.03125 l 0,-0.3125 c -0.671875,0 -0.78125,0 -0.78125,-0.4375 l 0,-1.84375 C 1.78125,-3.625 2.5,-4.1875 3.125,-4.1875 c 0.640625,0 0.75,0.53125 0.75,1.109375 l 0,2.328125 c 0,0.4375 -0.109375,0.4375 -0.78125,0.4375 l 0,0.3125 c 0.34375,-0.015625 0.859375,-0.03125 1.125,-0.03125 0.25,0 0.78125,0.015625 1.109375,0.03125 l 0,-0.3125 c -0.515625,0 -0.765625,0 -0.765625,-0.296875 l 0,-1.90625 c 0,-0.859375 0,-1.15625 -0.3125,-1.515625 -0.140625,-0.171875 -0.46875,-0.375 -1.046875,-0.375 -0.84375,0 -1.28125,0.59375 -1.453125,0.984375 l 0,-3.5 -1.4375,0.109375 0,0.3125 c 0.703125,0 0.78125,0.0625 0.78125,0.5625 z m 0,0"
             style="stroke:none"
             inkscape:connector-curvature="0" />
        </symbol>
        <symbol
           id="textext-eaf6471e-5"
           overflow="visible"
           style="overflow:visible">
          <path
             id="path4060"
             d="M 4.6875,-2.140625 C 4.6875,-3.40625 3.703125,-4.46875 2.5,-4.46875 c -1.25,0 -2.21875,1.09375 -2.21875,2.328125 0,1.296875 1.03125,2.25 2.203125,2.25 1.203125,0 2.203125,-0.984375 2.203125,-2.25 z m -2.1875,2 c -0.4375,0 -0.875,-0.203125 -1.140625,-0.671875 -0.25,-0.4375 -0.25,-1.046875 -0.25,-1.40625 0,-0.390625 0,-0.921875 0.234375,-1.359375 C 1.609375,-4.03125 2.078125,-4.25 2.484375,-4.25 c 0.4375,0 0.859375,0.21875 1.125,0.65625 0.265625,0.421875 0.265625,1 0.265625,1.375 0,0.359375 0,0.90625 -0.21875,1.34375 C 3.421875,-0.421875 2.984375,-0.140625 2.5,-0.140625 z m 0,0"
             style="stroke:none"
             inkscape:connector-curvature="0" />
        </symbol>
        <symbol
           id="textext-eaf6471e-6"
           overflow="visible"
           style="overflow:visible">
          <path
             id="path4063"
             d="m 1.765625,-6.921875 -1.4375,0.109375 0,0.3125 c 0.703125,0 0.78125,0.0625 0.78125,0.5625 l 0,5.1875 c 0,0.4375 -0.109375,0.4375 -0.78125,0.4375 l 0,0.3125 C 0.65625,-0.015625 1.1875,-0.03125 1.4375,-0.03125 c 0.25,0 0.734375,0.015625 1.109375,0.03125 l 0,-0.3125 c -0.671875,0 -0.78125,0 -0.78125,-0.4375 z m 0,0"
             style="stroke:none"
             inkscape:connector-curvature="0" />
        </symbol>
        <symbol
           id="textext-eaf6471e-7"
           overflow="visible"
           style="overflow:visible">
          <path
             id="path4066"
             d="M 1.109375,-2.515625 C 1.171875,-4 2.015625,-4.25 2.359375,-4.25 c 1.015625,0 1.125,1.34375 1.125,1.734375 z m 0,0.21875 2.78125,0 c 0.21875,0 0.25,0 0.25,-0.21875 0,-0.984375 -0.546875,-1.953125 -1.78125,-1.953125 -1.15625,0 -2.078125,1.03125 -2.078125,2.28125 0,1.328125 1.046875,2.296875 2.1875,2.296875 C 3.6875,0.109375 4.140625,-1 4.140625,-1.1875 4.140625,-1.28125 4.0625,-1.3125 4,-1.3125 c -0.078125,0 -0.109375,0.0625 -0.125,0.140625 -0.34375,1.03125 -1.25,1.03125 -1.34375,1.03125 -0.5,0 -0.890625,-0.296875 -1.125,-0.671875 -0.296875,-0.46875 -0.296875,-1.125 -0.296875,-1.484375 z m 0,0"
             style="stroke:none"
             inkscape:connector-curvature="0" />
        </symbol>
      </g>
    </defs>
    <g
       id="textext-eaf6471e-8">
      <g
         id="g4069"
         style="fill:#000000;fill-opacity:1">
        <use
           id="use4071"
           y="134.765"
           x="223.43201"
           xlink:href="#textext-eaf6471e-1"
           width="402"
           height="266" />
        <use
           id="use4073"
           y="134.765"
           x="230.21254"
           xlink:href="#textext-eaf6471e-2"
           width="402"
           height="266" />
        <use
           id="use4075"
           y="134.765"
           x="232.98016"
           xlink:href="#textext-eaf6471e-3"
           width="402"
           height="266" />
        <use
           id="use4077"
           y="134.765"
           x="238.51538"
           xlink:href="#textext-eaf6471e-4"
           width="402"
           height="266" />
        <use
           id="use4079"
           y="134.765"
           x="244.0506"
           xlink:href="#textext-eaf6471e-5"
           width="402"
           height="266" />
        <use
           id="use4081"
           y="134.765"
           x="249.03189"
           xlink:href="#textext-eaf6471e-6"
           width="402"
           height="266" />
        <use
           id="use4083"
           y="134.765"
           x="251.7995"
           xlink:href="#textext-eaf6471e-7"
           width="402"
           height="266" />
      </g>
    </g>
  </g>
  <g
     id="g5157"
     transform="matrix(1.8234979,0,0,1.8234979,-404.13045,14.069289)"
     ns0:preamble=""
     ns0:text="objeto">
    <defs
       id="defs5159">
      <g
         id="g5161">
        <symbol
           id="textext-ca3e461a-0"
           overflow="visible">
          <path
             id="path5164"
             d=""
             style="stroke:none;" />
        </symbol>
        <symbol
           id="textext-ca3e461a-1"
           overflow="visible">
          <path
             id="path5167"
             d="M 4.6875 -2.140625 C 4.6875 -3.40625 3.703125 -4.46875 2.5 -4.46875 C 1.25 -4.46875 0.28125 -3.375 0.28125 -2.140625 C 0.28125 -0.84375 1.3125 0.109375 2.484375 0.109375 C 3.6875 0.109375 4.6875 -0.875 4.6875 -2.140625 Z M 2.5 -0.140625 C 2.0625 -0.140625 1.625 -0.34375 1.359375 -0.8125 C 1.109375 -1.25 1.109375 -1.859375 1.109375 -2.21875 C 1.109375 -2.609375 1.109375 -3.140625 1.34375 -3.578125 C 1.609375 -4.03125 2.078125 -4.25 2.484375 -4.25 C 2.921875 -4.25 3.34375 -4.03125 3.609375 -3.59375 C 3.875 -3.171875 3.875 -2.59375 3.875 -2.21875 C 3.875 -1.859375 3.875 -1.3125 3.65625 -0.875 C 3.421875 -0.421875 2.984375 -0.140625 2.5 -0.140625 Z M 2.5 -0.140625 "
             style="stroke:none;" />
        </symbol>
        <symbol
           id="textext-ca3e461a-2"
           overflow="visible">
          <path
             id="path5170"
             d="M 1.71875 -3.765625 L 1.71875 -6.921875 L 0.28125 -6.8125 L 0.28125 -6.5 C 0.984375 -6.5 1.0625 -6.4375 1.0625 -5.9375 L 1.0625 0 L 1.3125 0 C 1.3125 -0.015625 1.390625 -0.15625 1.671875 -0.625 C 1.8125 -0.390625 2.234375 0.109375 2.96875 0.109375 C 4.15625 0.109375 5.1875 -0.875 5.1875 -2.15625 C 5.1875 -3.421875 4.21875 -4.40625 3.078125 -4.40625 C 2.296875 -4.40625 1.875 -3.9375 1.71875 -3.765625 Z M 1.75 -1.140625 L 1.75 -3.1875 C 1.75 -3.375 1.75 -3.390625 1.859375 -3.546875 C 2.25 -4.109375 2.796875 -4.1875 3.03125 -4.1875 C 3.484375 -4.1875 3.84375 -3.921875 4.078125 -3.546875 C 4.34375 -3.140625 4.359375 -2.578125 4.359375 -2.15625 C 4.359375 -1.796875 4.34375 -1.203125 4.0625 -0.75 C 3.84375 -0.4375 3.46875 -0.109375 2.9375 -0.109375 C 2.484375 -0.109375 2.125 -0.34375 1.890625 -0.71875 C 1.75 -0.921875 1.75 -0.953125 1.75 -1.140625 Z M 1.75 -1.140625 "
             style="stroke:none;" />
        </symbol>
        <symbol
           id="textext-ca3e461a-3"
           overflow="visible">
          <path
             id="path5173"
             d="M 2.09375 -4.40625 L 0.578125 -4.296875 L 0.578125 -3.984375 C 1.34375 -3.984375 1.4375 -3.921875 1.4375 -3.421875 L 1.4375 0.515625 C 1.4375 0.96875 1.34375 1.828125 0.703125 1.828125 C 0.65625 1.828125 0.421875 1.828125 0.171875 1.6875 C 0.3125 1.65625 0.515625 1.515625 0.515625 1.25 C 0.515625 0.984375 0.34375 0.78125 0.0625 0.78125 C -0.21875 0.78125 -0.40625 0.984375 -0.40625 1.25 C -0.40625 1.765625 0.15625 2.046875 0.734375 2.046875 C 1.46875 2.046875 2.09375 1.40625 2.09375 0.5 Z M 2.09375 -6.140625 C 2.09375 -6.4375 1.859375 -6.671875 1.5625 -6.671875 C 1.28125 -6.671875 1.03125 -6.4375 1.03125 -6.140625 C 1.03125 -5.859375 1.28125 -5.609375 1.5625 -5.609375 C 1.859375 -5.609375 2.09375 -5.859375 2.09375 -6.140625 Z M 2.09375 -6.140625 "
             style="stroke:none;" />
        </symbol>
        <symbol
           id="textext-ca3e461a-4"
           overflow="visible">
          <path
             id="path5176"
             d="M 1.109375 -2.515625 C 1.171875 -4 2.015625 -4.25 2.359375 -4.25 C 3.375 -4.25 3.484375 -2.90625 3.484375 -2.515625 Z M 1.109375 -2.296875 L 3.890625 -2.296875 C 4.109375 -2.296875 4.140625 -2.296875 4.140625 -2.515625 C 4.140625 -3.5 3.59375 -4.46875 2.359375 -4.46875 C 1.203125 -4.46875 0.28125 -3.4375 0.28125 -2.1875 C 0.28125 -0.859375 1.328125 0.109375 2.46875 0.109375 C 3.6875 0.109375 4.140625 -1 4.140625 -1.1875 C 4.140625 -1.28125 4.0625 -1.3125 4 -1.3125 C 3.921875 -1.3125 3.890625 -1.25 3.875 -1.171875 C 3.53125 -0.140625 2.625 -0.140625 2.53125 -0.140625 C 2.03125 -0.140625 1.640625 -0.4375 1.40625 -0.8125 C 1.109375 -1.28125 1.109375 -1.9375 1.109375 -2.296875 Z M 1.109375 -2.296875 "
             style="stroke:none;" />
        </symbol>
        <symbol
           id="textext-ca3e461a-5"
           overflow="visible">
          <path
             id="path5179"
             d="M 1.71875 -3.984375 L 3.15625 -3.984375 L 3.15625 -4.296875 L 1.71875 -4.296875 L 1.71875 -6.125 L 1.46875 -6.125 C 1.46875 -5.3125 1.171875 -4.25 0.1875 -4.203125 L 0.1875 -3.984375 L 1.03125 -3.984375 L 1.03125 -1.234375 C 1.03125 -0.015625 1.96875 0.109375 2.328125 0.109375 C 3.03125 0.109375 3.3125 -0.59375 3.3125 -1.234375 L 3.3125 -1.796875 L 3.0625 -1.796875 L 3.0625 -1.25 C 3.0625 -0.515625 2.765625 -0.140625 2.390625 -0.140625 C 1.71875 -0.140625 1.71875 -1.046875 1.71875 -1.21875 Z M 1.71875 -3.984375 "
             style="stroke:none;" />
        </symbol>
      </g>
    </defs>
    <g
       id="textext-ca3e461a-6">
      <g
         id="g5182"
         style="fill:rgb(0%,0%,0%);fill-opacity:1;">
        <use
           id="use5184"
           y="134.765"
           x="223.432"
           xlink:href="#textext-ca3e461a-1" />
        <use
           id="use5186"
           y="134.765"
           x="228.4133"
           xlink:href="#textext-ca3e461a-2" />
      </g>
      <g
         id="g5188"
         style="fill:rgb(0%,0%,0%);fill-opacity:1;">
        <use
           id="use5190"
           y="134.765"
           x="234.506426"
           xlink:href="#textext-ca3e461a-3" />
      </g>
      <g
         id="g5192"
         style="fill:rgb(0%,0%,0%);fill-opacity:1;">
        <use
           id="use5194"
           y="134.765"
           x="237.541034"
           xlink:href="#textext-ca3e461a-4" />
      </g>
      <g
         id="g5196"
         style="fill:rgb(0%,0%,0%);fill-opacity:1;">
        <use
           id="use5198"
           y="134.765"
           x="241.978376"
           xlink:href="#textext-ca3e461a-5" />
        <use
           id="use5200"
           y="134.765"
           x="245.852831"
           xlink:href="#textext-ca3e461a-1" />
      </g>
    </g>
  </g>
  <g
     id="g5750"
     transform="matrix(1.8234979,0,0,1.8234979,-116.80563,-43.959716)"
     ns0:preamble=""
     ns0:text="retina">
    <defs
       id="defs5752">
      <g
         id="g5754">
        <symbol
           id="symbol5756"
           overflow="visible">
          <path
             id="path5758"
             d=""
             style="stroke:none;" />
        </symbol>
        <symbol
           id="symbol5760"
           overflow="visible">
          <path
             id="path5762"
             d="M 1.671875 -3.3125 L 1.671875 -4.40625 L 0.28125 -4.296875 L 0.28125 -3.984375 C 0.984375 -3.984375 1.0625 -3.921875 1.0625 -3.421875 L 1.0625 -0.75 C 1.0625 -0.3125 0.953125 -0.3125 0.28125 -0.3125 L 0.28125 0 C 0.671875 -0.015625 1.140625 -0.03125 1.421875 -0.03125 C 1.8125 -0.03125 2.28125 -0.03125 2.6875 0 L 2.6875 -0.3125 L 2.46875 -0.3125 C 1.734375 -0.3125 1.71875 -0.421875 1.71875 -0.78125 L 1.71875 -2.3125 C 1.71875 -3.296875 2.140625 -4.1875 2.890625 -4.1875 C 2.953125 -4.1875 2.984375 -4.1875 3 -4.171875 C 2.96875 -4.171875 2.765625 -4.046875 2.765625 -3.78125 C 2.765625 -3.515625 2.984375 -3.359375 3.203125 -3.359375 C 3.375 -3.359375 3.625 -3.484375 3.625 -3.796875 C 3.625 -4.109375 3.3125 -4.40625 2.890625 -4.40625 C 2.15625 -4.40625 1.796875 -3.734375 1.671875 -3.3125 Z M 1.671875 -3.3125 "
             style="stroke:none;" />
        </symbol>
        <symbol
           id="symbol5764"
           overflow="visible">
          <path
             id="path5766"
             d="M 1.109375 -2.515625 C 1.171875 -4 2.015625 -4.25 2.359375 -4.25 C 3.375 -4.25 3.484375 -2.90625 3.484375 -2.515625 Z M 1.109375 -2.296875 L 3.890625 -2.296875 C 4.109375 -2.296875 4.140625 -2.296875 4.140625 -2.515625 C 4.140625 -3.5 3.59375 -4.46875 2.359375 -4.46875 C 1.203125 -4.46875 0.28125 -3.4375 0.28125 -2.1875 C 0.28125 -0.859375 1.328125 0.109375 2.46875 0.109375 C 3.6875 0.109375 4.140625 -1 4.140625 -1.1875 C 4.140625 -1.28125 4.0625 -1.3125 4 -1.3125 C 3.921875 -1.3125 3.890625 -1.25 3.875 -1.171875 C 3.53125 -0.140625 2.625 -0.140625 2.53125 -0.140625 C 2.03125 -0.140625 1.640625 -0.4375 1.40625 -0.8125 C 1.109375 -1.28125 1.109375 -1.9375 1.109375 -2.296875 Z M 1.109375 -2.296875 "
             style="stroke:none;" />
        </symbol>
        <symbol
           id="symbol5768"
           overflow="visible">
          <path
             id="path5770"
             d="M 1.71875 -3.984375 L 3.15625 -3.984375 L 3.15625 -4.296875 L 1.71875 -4.296875 L 1.71875 -6.125 L 1.46875 -6.125 C 1.46875 -5.3125 1.171875 -4.25 0.1875 -4.203125 L 0.1875 -3.984375 L 1.03125 -3.984375 L 1.03125 -1.234375 C 1.03125 -0.015625 1.96875 0.109375 2.328125 0.109375 C 3.03125 0.109375 3.3125 -0.59375 3.3125 -1.234375 L 3.3125 -1.796875 L 3.0625 -1.796875 L 3.0625 -1.25 C 3.0625 -0.515625 2.765625 -0.140625 2.390625 -0.140625 C 1.71875 -0.140625 1.71875 -1.046875 1.71875 -1.21875 Z M 1.71875 -3.984375 "
             style="stroke:none;" />
        </symbol>
        <symbol
           id="symbol5772"
           overflow="visible">
          <path
             id="path5774"
             d="M 1.765625 -4.40625 L 0.375 -4.296875 L 0.375 -3.984375 C 1.015625 -3.984375 1.109375 -3.921875 1.109375 -3.4375 L 1.109375 -0.75 C 1.109375 -0.3125 1 -0.3125 0.328125 -0.3125 L 0.328125 0 C 0.640625 -0.015625 1.1875 -0.03125 1.421875 -0.03125 C 1.78125 -0.03125 2.125 -0.015625 2.46875 0 L 2.46875 -0.3125 C 1.796875 -0.3125 1.765625 -0.359375 1.765625 -0.75 Z M 1.796875 -6.140625 C 1.796875 -6.453125 1.5625 -6.671875 1.28125 -6.671875 C 0.96875 -6.671875 0.75 -6.40625 0.75 -6.140625 C 0.75 -5.875 0.96875 -5.609375 1.28125 -5.609375 C 1.5625 -5.609375 1.796875 -5.828125 1.796875 -6.140625 Z M 1.796875 -6.140625 "
             style="stroke:none;" />
        </symbol>
        <symbol
           id="symbol5776"
           overflow="visible">
          <path
             id="path5778"
             d="M 1.09375 -3.421875 L 1.09375 -0.75 C 1.09375 -0.3125 0.984375 -0.3125 0.3125 -0.3125 L 0.3125 0 C 0.671875 -0.015625 1.171875 -0.03125 1.453125 -0.03125 C 1.703125 -0.03125 2.21875 -0.015625 2.5625 0 L 2.5625 -0.3125 C 1.890625 -0.3125 1.78125 -0.3125 1.78125 -0.75 L 1.78125 -2.59375 C 1.78125 -3.625 2.5 -4.1875 3.125 -4.1875 C 3.765625 -4.1875 3.875 -3.65625 3.875 -3.078125 L 3.875 -0.75 C 3.875 -0.3125 3.765625 -0.3125 3.09375 -0.3125 L 3.09375 0 C 3.4375 -0.015625 3.953125 -0.03125 4.21875 -0.03125 C 4.46875 -0.03125 5 -0.015625 5.328125 0 L 5.328125 -0.3125 C 4.8125 -0.3125 4.5625 -0.3125 4.5625 -0.609375 L 4.5625 -2.515625 C 4.5625 -3.375 4.5625 -3.671875 4.25 -4.03125 C 4.109375 -4.203125 3.78125 -4.40625 3.203125 -4.40625 C 2.46875 -4.40625 2 -3.984375 1.71875 -3.359375 L 1.71875 -4.40625 L 0.3125 -4.296875 L 0.3125 -3.984375 C 1.015625 -3.984375 1.09375 -3.921875 1.09375 -3.421875 Z M 1.09375 -3.421875 "
             style="stroke:none;" />
        </symbol>
        <symbol
           id="symbol5780"
           overflow="visible">
          <path
             id="path5782"
             d="M 3.3125 -0.75 C 3.359375 -0.359375 3.625 0.0625 4.09375 0.0625 C 4.3125 0.0625 4.921875 -0.078125 4.921875 -0.890625 L 4.921875 -1.453125 L 4.671875 -1.453125 L 4.671875 -0.890625 C 4.671875 -0.3125 4.421875 -0.25 4.3125 -0.25 C 3.984375 -0.25 3.9375 -0.703125 3.9375 -0.75 L 3.9375 -2.734375 C 3.9375 -3.15625 3.9375 -3.546875 3.578125 -3.921875 C 3.1875 -4.3125 2.6875 -4.46875 2.21875 -4.46875 C 1.390625 -4.46875 0.703125 -4 0.703125 -3.34375 C 0.703125 -3.046875 0.90625 -2.875 1.171875 -2.875 C 1.453125 -2.875 1.625 -3.078125 1.625 -3.328125 C 1.625 -3.453125 1.578125 -3.78125 1.109375 -3.78125 C 1.390625 -4.140625 1.875 -4.25 2.1875 -4.25 C 2.6875 -4.25 3.25 -3.859375 3.25 -2.96875 L 3.25 -2.609375 C 2.734375 -2.578125 2.046875 -2.546875 1.421875 -2.25 C 0.671875 -1.90625 0.421875 -1.390625 0.421875 -0.953125 C 0.421875 -0.140625 1.390625 0.109375 2.015625 0.109375 C 2.671875 0.109375 3.125 -0.296875 3.3125 -0.75 Z M 3.25 -2.390625 L 3.25 -1.390625 C 3.25 -0.453125 2.53125 -0.109375 2.078125 -0.109375 C 1.59375 -0.109375 1.1875 -0.453125 1.1875 -0.953125 C 1.1875 -1.5 1.609375 -2.328125 3.25 -2.390625 Z M 3.25 -2.390625 "
             style="stroke:none;" />
        </symbol>
      </g>
    </defs>
    <g
       id="g5784">
      <g
         id="g5786"
         style="fill:rgb(0%,0%,0%);fill-opacity:1;">
        <use
           id="use5788"
           y="134.765"
           x="223.432"
           xlink:href="#textext-02331717-1" />
        <use
           id="use5790"
           y="134.765"
           x="227.33435"
           xlink:href="#textext-02331717-2" />
        <use
           id="use5792"
           y="134.765"
           x="231.76173"
           xlink:href="#textext-02331717-3" />
        <use
           id="use5794"
           y="134.765"
           x="235.636185"
           xlink:href="#textext-02331717-4" />
        <use
           id="use5796"
           y="134.765"
           x="238.403795"
           xlink:href="#textext-02331717-5" />
        <use
           id="use5798"
           y="134.765"
           x="243.939016"
           xlink:href="#textext-02331717-6" />
      </g>
    </g>
  </g>
  <g
     ns0:text="imagen"
     ns0:preamble=""
     transform="matrix(1.8234979,0,0,1.8234979,-100.37198,-138.09172)"
     id="g6060">
    <defs
       id="defs6062">
      <g
         id="g6064">
        <symbol
           overflow="visible"
           id="textext-53416d27-0">
          <path
             style="stroke:none;"
             d=""
             id="path6067" />
        </symbol>
        <symbol
           overflow="visible"
           id="textext-53416d27-1">
          <path
             style="stroke:none;"
             d="M 1.765625 -4.40625 L 0.375 -4.296875 L 0.375 -3.984375 C 1.015625 -3.984375 1.109375 -3.921875 1.109375 -3.4375 L 1.109375 -0.75 C 1.109375 -0.3125 1 -0.3125 0.328125 -0.3125 L 0.328125 0 C 0.640625 -0.015625 1.1875 -0.03125 1.421875 -0.03125 C 1.78125 -0.03125 2.125 -0.015625 2.46875 0 L 2.46875 -0.3125 C 1.796875 -0.3125 1.765625 -0.359375 1.765625 -0.75 Z M 1.796875 -6.140625 C 1.796875 -6.453125 1.5625 -6.671875 1.28125 -6.671875 C 0.96875 -6.671875 0.75 -6.40625 0.75 -6.140625 C 0.75 -5.875 0.96875 -5.609375 1.28125 -5.609375 C 1.5625 -5.609375 1.796875 -5.828125 1.796875 -6.140625 Z M 1.796875 -6.140625 "
             id="path6070" />
        </symbol>
        <symbol
           overflow="visible"
           id="textext-53416d27-2">
          <path
             style="stroke:none;"
             d="M 1.09375 -3.421875 L 1.09375 -0.75 C 1.09375 -0.3125 0.984375 -0.3125 0.3125 -0.3125 L 0.3125 0 C 0.671875 -0.015625 1.171875 -0.03125 1.453125 -0.03125 C 1.703125 -0.03125 2.21875 -0.015625 2.5625 0 L 2.5625 -0.3125 C 1.890625 -0.3125 1.78125 -0.3125 1.78125 -0.75 L 1.78125 -2.59375 C 1.78125 -3.625 2.5 -4.1875 3.125 -4.1875 C 3.765625 -4.1875 3.875 -3.65625 3.875 -3.078125 L 3.875 -0.75 C 3.875 -0.3125 3.765625 -0.3125 3.09375 -0.3125 L 3.09375 0 C 3.4375 -0.015625 3.953125 -0.03125 4.21875 -0.03125 C 4.46875 -0.03125 5 -0.015625 5.328125 0 L 5.328125 -0.3125 C 4.671875 -0.3125 4.5625 -0.3125 4.5625 -0.75 L 4.5625 -2.59375 C 4.5625 -3.625 5.265625 -4.1875 5.90625 -4.1875 C 6.53125 -4.1875 6.640625 -3.65625 6.640625 -3.078125 L 6.640625 -0.75 C 6.640625 -0.3125 6.53125 -0.3125 5.859375 -0.3125 L 5.859375 0 C 6.203125 -0.015625 6.71875 -0.03125 6.984375 -0.03125 C 7.25 -0.03125 7.765625 -0.015625 8.109375 0 L 8.109375 -0.3125 C 7.59375 -0.3125 7.34375 -0.3125 7.328125 -0.609375 L 7.328125 -2.515625 C 7.328125 -3.375 7.328125 -3.671875 7.015625 -4.03125 C 6.875 -4.203125 6.546875 -4.40625 5.96875 -4.40625 C 5.140625 -4.40625 4.6875 -3.8125 4.53125 -3.421875 C 4.390625 -4.296875 3.65625 -4.40625 3.203125 -4.40625 C 2.46875 -4.40625 2 -3.984375 1.71875 -3.359375 L 1.71875 -4.40625 L 0.3125 -4.296875 L 0.3125 -3.984375 C 1.015625 -3.984375 1.09375 -3.921875 1.09375 -3.421875 Z M 1.09375 -3.421875 "
             id="path6073" />
        </symbol>
        <symbol
           overflow="visible"
           id="textext-53416d27-3">
          <path
             style="stroke:none;"
             d="M 3.3125 -0.75 C 3.359375 -0.359375 3.625 0.0625 4.09375 0.0625 C 4.3125 0.0625 4.921875 -0.078125 4.921875 -0.890625 L 4.921875 -1.453125 L 4.671875 -1.453125 L 4.671875 -0.890625 C 4.671875 -0.3125 4.421875 -0.25 4.3125 -0.25 C 3.984375 -0.25 3.9375 -0.703125 3.9375 -0.75 L 3.9375 -2.734375 C 3.9375 -3.15625 3.9375 -3.546875 3.578125 -3.921875 C 3.1875 -4.3125 2.6875 -4.46875 2.21875 -4.46875 C 1.390625 -4.46875 0.703125 -4 0.703125 -3.34375 C 0.703125 -3.046875 0.90625 -2.875 1.171875 -2.875 C 1.453125 -2.875 1.625 -3.078125 1.625 -3.328125 C 1.625 -3.453125 1.578125 -3.78125 1.109375 -3.78125 C 1.390625 -4.140625 1.875 -4.25 2.1875 -4.25 C 2.6875 -4.25 3.25 -3.859375 3.25 -2.96875 L 3.25 -2.609375 C 2.734375 -2.578125 2.046875 -2.546875 1.421875 -2.25 C 0.671875 -1.90625 0.421875 -1.390625 0.421875 -0.953125 C 0.421875 -0.140625 1.390625 0.109375 2.015625 0.109375 C 2.671875 0.109375 3.125 -0.296875 3.3125 -0.75 Z M 3.25 -2.390625 L 3.25 -1.390625 C 3.25 -0.453125 2.53125 -0.109375 2.078125 -0.109375 C 1.59375 -0.109375 1.1875 -0.453125 1.1875 -0.953125 C 1.1875 -1.5 1.609375 -2.328125 3.25 -2.390625 Z M 3.25 -2.390625 "
             id="path6076" />
        </symbol>
        <symbol
           overflow="visible"
           id="textext-53416d27-4">
          <path
             style="stroke:none;"
             d="M 2.21875 -1.71875 C 1.34375 -1.71875 1.34375 -2.71875 1.34375 -2.9375 C 1.34375 -3.203125 1.359375 -3.53125 1.5 -3.78125 C 1.578125 -3.890625 1.8125 -4.171875 2.21875 -4.171875 C 3.078125 -4.171875 3.078125 -3.1875 3.078125 -2.953125 C 3.078125 -2.6875 3.078125 -2.359375 2.921875 -2.109375 C 2.84375 -2 2.609375 -1.71875 2.21875 -1.71875 Z M 1.0625 -1.328125 C 1.0625 -1.359375 1.0625 -1.59375 1.21875 -1.796875 C 1.609375 -1.515625 2.03125 -1.484375 2.21875 -1.484375 C 3.140625 -1.484375 3.828125 -2.171875 3.828125 -2.9375 C 3.828125 -3.3125 3.671875 -3.671875 3.421875 -3.90625 C 3.78125 -4.25 4.140625 -4.296875 4.3125 -4.296875 C 4.34375 -4.296875 4.390625 -4.296875 4.421875 -4.28125 C 4.3125 -4.25 4.25 -4.140625 4.25 -4.015625 C 4.25 -3.84375 4.390625 -3.734375 4.546875 -3.734375 C 4.640625 -3.734375 4.828125 -3.796875 4.828125 -4.03125 C 4.828125 -4.203125 4.71875 -4.515625 4.328125 -4.515625 C 4.125 -4.515625 3.6875 -4.453125 3.265625 -4.046875 C 2.84375 -4.375 2.4375 -4.40625 2.21875 -4.40625 C 1.28125 -4.40625 0.59375 -3.71875 0.59375 -2.953125 C 0.59375 -2.515625 0.8125 -2.140625 1.0625 -1.921875 C 0.9375 -1.78125 0.75 -1.453125 0.75 -1.09375 C 0.75 -0.78125 0.890625 -0.40625 1.203125 -0.203125 C 0.59375 -0.046875 0.28125 0.390625 0.28125 0.78125 C 0.28125 1.5 1.265625 2.046875 2.484375 2.046875 C 3.65625 2.046875 4.6875 1.546875 4.6875 0.765625 C 4.6875 0.421875 4.5625 -0.09375 4.046875 -0.375 C 3.515625 -0.640625 2.9375 -0.640625 2.328125 -0.640625 C 2.078125 -0.640625 1.65625 -0.640625 1.578125 -0.65625 C 1.265625 -0.703125 1.0625 -1 1.0625 -1.328125 Z M 2.5 1.828125 C 1.484375 1.828125 0.796875 1.3125 0.796875 0.78125 C 0.796875 0.328125 1.171875 -0.046875 1.609375 -0.0625 L 2.203125 -0.0625 C 3.0625 -0.0625 4.171875 -0.0625 4.171875 0.78125 C 4.171875 1.328125 3.46875 1.828125 2.5 1.828125 Z M 2.5 1.828125 "
             id="path6079" />
        </symbol>
        <symbol
           overflow="visible"
           id="textext-53416d27-5">
          <path
             style="stroke:none;"
             d="M 1.109375 -2.515625 C 1.171875 -4 2.015625 -4.25 2.359375 -4.25 C 3.375 -4.25 3.484375 -2.90625 3.484375 -2.515625 Z M 1.109375 -2.296875 L 3.890625 -2.296875 C 4.109375 -2.296875 4.140625 -2.296875 4.140625 -2.515625 C 4.140625 -3.5 3.59375 -4.46875 2.359375 -4.46875 C 1.203125 -4.46875 0.28125 -3.4375 0.28125 -2.1875 C 0.28125 -0.859375 1.328125 0.109375 2.46875 0.109375 C 3.6875 0.109375 4.140625 -1 4.140625 -1.1875 C 4.140625 -1.28125 4.0625 -1.3125 4 -1.3125 C 3.921875 -1.3125 3.890625 -1.25 3.875 -1.171875 C 3.53125 -0.140625 2.625 -0.140625 2.53125 -0.140625 C 2.03125 -0.140625 1.640625 -0.4375 1.40625 -0.8125 C 1.109375 -1.28125 1.109375 -1.9375 1.109375 -2.296875 Z M 1.109375 -2.296875 "
             id="path6082" />
        </symbol>
        <symbol
           overflow="visible"
           id="textext-53416d27-6">
          <path
             style="stroke:none;"
             d="M 1.09375 -3.421875 L 1.09375 -0.75 C 1.09375 -0.3125 0.984375 -0.3125 0.3125 -0.3125 L 0.3125 0 C 0.671875 -0.015625 1.171875 -0.03125 1.453125 -0.03125 C 1.703125 -0.03125 2.21875 -0.015625 2.5625 0 L 2.5625 -0.3125 C 1.890625 -0.3125 1.78125 -0.3125 1.78125 -0.75 L 1.78125 -2.59375 C 1.78125 -3.625 2.5 -4.1875 3.125 -4.1875 C 3.765625 -4.1875 3.875 -3.65625 3.875 -3.078125 L 3.875 -0.75 C 3.875 -0.3125 3.765625 -0.3125 3.09375 -0.3125 L 3.09375 0 C 3.4375 -0.015625 3.953125 -0.03125 4.21875 -0.03125 C 4.46875 -0.03125 5 -0.015625 5.328125 0 L 5.328125 -0.3125 C 4.8125 -0.3125 4.5625 -0.3125 4.5625 -0.609375 L 4.5625 -2.515625 C 4.5625 -3.375 4.5625 -3.671875 4.25 -4.03125 C 4.109375 -4.203125 3.78125 -4.40625 3.203125 -4.40625 C 2.46875 -4.40625 2 -3.984375 1.71875 -3.359375 L 1.71875 -4.40625 L 0.3125 -4.296875 L 0.3125 -3.984375 C 1.015625 -3.984375 1.09375 -3.921875 1.09375 -3.421875 Z M 1.09375 -3.421875 "
             id="path6085" />
        </symbol>
      </g>
    </defs>
    <g
       id="textext-53416d27-7">
      <g
         style="fill:rgb(0%,0%,0%);fill-opacity:1;"
         id="g6088">
        <use
           xlink:href="#textext-53416d27-1"
           x="223.432"
           y="134.765"
           id="use6090" />
        <use
           xlink:href="#textext-53416d27-2"
           x="226.19961"
           y="134.765"
           id="use6092" />
        <use
           xlink:href="#textext-53416d27-3"
           x="234.501445"
           y="134.765"
           id="use6094" />
        <use
           xlink:href="#textext-53416d27-4"
           x="239.482745"
           y="134.765"
           id="use6096" />
        <use
           xlink:href="#textext-53416d27-5"
           x="244.464045"
           y="134.765"
           id="use6098" />
        <use
           xlink:href="#textext-53416d27-6"
           x="248.891424"
           y="134.765"
           id="use6100" />
      </g>
    </g>
  </g>
  <path
     inkscape:transform-center-x="0.2897865"
     inkscape:transform-center-y="37.756445"
     inkscape:connector-curvature="0"
     id="path6283"
     d="m 18.938911,165.08077 -0.600217,78.20267"
     style="fill:none;stroke:#000000;stroke-width:2;stroke-linecap:butt;stroke-linejoin:miter;stroke-miterlimit:4;stroke-opacity:1;stroke-dasharray:none" />
  <path
     inkscape:transform-center-x="0.29612176"
     inkscape:transform-center-y="37.277745"
     inkscape:connector-curvature="0"
     id="path6283-4"
     d="m 300.97571,66.976298 -0.61333,77.211172"
     style="fill:none;stroke:#000000;stroke-width:1.99520457;stroke-linecap:butt;stroke-linejoin:miter;stroke-miterlimit:4;stroke-opacity:1;stroke-dasharray:none" />
  <g
     id="g3583"
     transform="matrix(1.8234979,0,0,1.8234979,-289.10285,-18.218652)"
     ns0:preamble=""
     ns0:text="pantalla\\\\opaca\n">
    <defs
       id="defs3585">
      <g
         id="g3587">
        <symbol
           id="textext-534655b9-0"
           overflow="visible"
           style="overflow:visible">
          <path
             id="path3590"
             d=""
             style="stroke:none"
             inkscape:connector-curvature="0" />
        </symbol>
        <symbol
           id="textext-534655b9-1"
           overflow="visible"
           style="overflow:visible">
          <path
             id="path3593"
             d="m 1.71875,-3.75 0,-0.65625 -1.4375,0.109375 0,0.3125 c 0.703125,0 0.78125,0.0625 0.78125,0.5 l 0,4.65625 C 1.0625,1.625 0.953125,1.625 0.28125,1.625 l 0,0.3125 C 0.625,1.921875 1.140625,1.90625 1.390625,1.90625 c 0.28125,0 0.78125,0.015625 1.125,0.03125 l 0,-0.3125 C 1.859375,1.625 1.75,1.625 1.75,1.171875 l 0,-1.765625 c 0.046875,0.171875 0.46875,0.703125 1.21875,0.703125 1.1875,0 2.21875,-0.984375 2.21875,-2.265625 0,-1.265625 -0.953125,-2.25 -2.078125,-2.25 -0.78125,0 -1.203125,0.4375 -1.390625,0.65625 z m 0.03125,2.609375 0,-2.21875 C 2.03125,-3.875 2.515625,-4.15625 3.03125,-4.15625 c 0.734375,0 1.328125,0.875 1.328125,2 0,1.203125 -0.6875,2.046875 -1.421875,2.046875 -0.40625,0 -0.78125,-0.203125 -1.046875,-0.609375 C 1.75,-0.921875 1.75,-0.9375 1.75,-1.140625 z m 0,0"
             style="stroke:none"
             inkscape:connector-curvature="0" />
        </symbol>
        <symbol
           id="textext-534655b9-2"
           overflow="visible"
           style="overflow:visible">
          <path
             id="path3596"
             d="m 3.3125,-0.75 c 0.046875,0.390625 0.3125,0.8125 0.78125,0.8125 0.21875,0 0.828125,-0.140625 0.828125,-0.953125 l 0,-0.5625 -0.25,0 0,0.5625 c 0,0.578125 -0.25,0.640625 -0.359375,0.640625 -0.328125,0 -0.375,-0.453125 -0.375,-0.5 l 0,-1.984375 c 0,-0.421875 0,-0.8125 -0.359375,-1.1875 C 3.1875,-4.3125 2.6875,-4.46875 2.21875,-4.46875 c -0.828125,0 -1.515625,0.46875 -1.515625,1.125 0,0.296875 0.203125,0.46875 0.46875,0.46875 0.28125,0 0.453125,-0.203125 0.453125,-0.453125 0,-0.125 -0.046875,-0.453125 -0.515625,-0.453125 C 1.390625,-4.140625 1.875,-4.25 2.1875,-4.25 c 0.5,0 1.0625,0.390625 1.0625,1.28125 l 0,0.359375 c -0.515625,0.03125 -1.203125,0.0625 -1.828125,0.359375 -0.75,0.34375 -1,0.859375 -1,1.296875 0,0.8125 0.96875,1.0625 1.59375,1.0625 0.65625,0 1.109375,-0.40625 1.296875,-0.859375 z M 3.25,-2.390625 l 0,1 c 0,0.9375 -0.71875,1.28125 -1.171875,1.28125 -0.484375,0 -0.890625,-0.34375 -0.890625,-0.84375 0,-0.546875 0.421875,-1.375 2.0625,-1.4375 z m 0,0"
             style="stroke:none"
             inkscape:connector-curvature="0" />
        </symbol>
        <symbol
           id="textext-534655b9-3"
           overflow="visible"
           style="overflow:visible">
          <path
             id="path3599"
             d="m 1.09375,-3.421875 0,2.671875 c 0,0.4375 -0.109375,0.4375 -0.78125,0.4375 l 0,0.3125 c 0.359375,-0.015625 0.859375,-0.03125 1.140625,-0.03125 0.25,0 0.765625,0.015625 1.109375,0.03125 l 0,-0.3125 c -0.671875,0 -0.78125,0 -0.78125,-0.4375 l 0,-1.84375 C 1.78125,-3.625 2.5,-4.1875 3.125,-4.1875 c 0.640625,0 0.75,0.53125 0.75,1.109375 l 0,2.328125 c 0,0.4375 -0.109375,0.4375 -0.78125,0.4375 l 0,0.3125 c 0.34375,-0.015625 0.859375,-0.03125 1.125,-0.03125 0.25,0 0.78125,0.015625 1.109375,0.03125 l 0,-0.3125 c -0.515625,0 -0.765625,0 -0.765625,-0.296875 l 0,-1.90625 c 0,-0.859375 0,-1.15625 -0.3125,-1.515625 -0.140625,-0.171875 -0.46875,-0.375 -1.046875,-0.375 C 2.46875,-4.40625 2,-3.984375 1.71875,-3.359375 l 0,-1.046875 -1.40625,0.109375 0,0.3125 c 0.703125,0 0.78125,0.0625 0.78125,0.5625 z m 0,0"
             style="stroke:none"
             inkscape:connector-curvature="0" />
        </symbol>
        <symbol
           id="textext-534655b9-4"
           overflow="visible"
           style="overflow:visible">
          <path
             id="path3602"
             d="m 1.71875,-3.984375 1.4375,0 0,-0.3125 -1.4375,0 0,-1.828125 -0.25,0 c 0,0.8125 -0.296875,1.875 -1.28125,1.921875 l 0,0.21875 0.84375,0 0,2.75 c 0,1.21875 0.9375,1.34375 1.296875,1.34375 0.703125,0 0.984375,-0.703125 0.984375,-1.34375 l 0,-0.5625 -0.25,0 0,0.546875 c 0,0.734375 -0.296875,1.109375 -0.671875,1.109375 -0.671875,0 -0.671875,-0.90625 -0.671875,-1.078125 z m 0,0"
             style="stroke:none"
             inkscape:connector-curvature="0" />
        </symbol>
        <symbol
           id="textext-534655b9-5"
           overflow="visible"
           style="overflow:visible">
          <path
             id="path3605"
             d="m 1.765625,-6.921875 -1.4375,0.109375 0,0.3125 c 0.703125,0 0.78125,0.0625 0.78125,0.5625 l 0,5.1875 c 0,0.4375 -0.109375,0.4375 -0.78125,0.4375 l 0,0.3125 C 0.65625,-0.015625 1.1875,-0.03125 1.4375,-0.03125 c 0.25,0 0.734375,0.015625 1.109375,0.03125 l 0,-0.3125 c -0.671875,0 -0.78125,0 -0.78125,-0.4375 z m 0,0"
             style="stroke:none"
             inkscape:connector-curvature="0" />
        </symbol>
        <symbol
           id="textext-534655b9-6"
           overflow="visible"
           style="overflow:visible">
          <path
             id="path3608"
             d="M 4.6875,-2.140625 C 4.6875,-3.40625 3.703125,-4.46875 2.5,-4.46875 c -1.25,0 -2.21875,1.09375 -2.21875,2.328125 0,1.296875 1.03125,2.25 2.203125,2.25 1.203125,0 2.203125,-0.984375 2.203125,-2.25 z m -2.1875,2 c -0.4375,0 -0.875,-0.203125 -1.140625,-0.671875 -0.25,-0.4375 -0.25,-1.046875 -0.25,-1.40625 0,-0.390625 0,-0.921875 0.234375,-1.359375 C 1.609375,-4.03125 2.078125,-4.25 2.484375,-4.25 c 0.4375,0 0.859375,0.21875 1.125,0.65625 0.265625,0.421875 0.265625,1 0.265625,1.375 0,0.359375 0,0.90625 -0.21875,1.34375 C 3.421875,-0.421875 2.984375,-0.140625 2.5,-0.140625 z m 0,0"
             style="stroke:none"
             inkscape:connector-curvature="0" />
        </symbol>
        <symbol
           id="textext-534655b9-7"
           overflow="visible"
           style="overflow:visible">
          <path
             id="path3611"
             d="m 1.171875,-2.171875 c 0,-1.625 0.8125,-2.046875 1.34375,-2.046875 0.09375,0 0.71875,0.015625 1.0625,0.375 -0.40625,0.03125 -0.46875,0.328125 -0.46875,0.453125 0,0.265625 0.1875,0.453125 0.453125,0.453125 0.265625,0 0.46875,-0.15625 0.46875,-0.46875 0,-0.671875 -0.765625,-1.0625 -1.53125,-1.0625 -1.25,0 -2.15625,1.078125 -2.15625,2.3125 0,1.28125 0.984375,2.265625 2.140625,2.265625 1.328125,0 1.65625,-1.203125 1.65625,-1.296875 0,-0.09375 -0.109375,-0.09375 -0.140625,-0.09375 -0.078125,0 -0.109375,0.03125 -0.125,0.09375 -0.28125,0.921875 -0.9375,1.046875 -1.296875,1.046875 -0.53125,0 -1.40625,-0.421875 -1.40625,-2.03125 z m 0,0"
             style="stroke:none"
             inkscape:connector-curvature="0" />
        </symbol>
      </g>
    </defs>
    <g
       id="textext-534655b9-8">
      <g
         id="g3614"
         style="fill:#000000;fill-opacity:1">
        <use
           id="use3616"
           y="134.765"
           x="223.43201"
           xlink:href="#textext-534655b9-1"
           width="402"
           height="266" />
        <use
           id="use3618"
           y="134.765"
           x="228.96722"
           xlink:href="#textext-534655b9-2"
           width="402"
           height="266" />
        <use
           id="use3620"
           y="134.765"
           x="233.94852"
           xlink:href="#textext-534655b9-3"
           width="402"
           height="266" />
      </g>
      <g
         id="g3622"
         style="fill:#000000;fill-opacity:1">
        <use
           id="use3624"
           y="134.765"
           x="239.20479"
           xlink:href="#textext-534655b9-4"
           width="402"
           height="266" />
        <use
           id="use3626"
           y="134.765"
           x="243.07924"
           xlink:href="#textext-534655b9-2"
           width="402"
           height="266" />
        <use
           id="use3628"
           y="134.765"
           x="248.06055"
           xlink:href="#textext-534655b9-5"
           width="402"
           height="266" />
        <use
           id="use3630"
           y="134.765"
           x="250.82816"
           xlink:href="#textext-534655b9-5"
           width="402"
           height="266" />
        <use
           id="use3632"
           y="134.765"
           x="253.59576"
           xlink:href="#textext-534655b9-2"
           width="402"
           height="266" />
      </g>
      <g
         id="g3634"
         style="fill:#000000;fill-opacity:1">
        <use
           id="use3636"
           y="146.72"
           x="223.43201"
           xlink:href="#textext-534655b9-6"
           width="402"
           height="266" />
        <use
           id="use3638"
           y="146.72"
           x="228.4133"
           xlink:href="#textext-534655b9-1"
           width="402"
           height="266" />
        <use
           id="use3640"
           y="146.72"
           x="233.94852"
           xlink:href="#textext-534655b9-2"
           width="402"
           height="266" />
        <use
           id="use3642"
           y="146.72"
           x="238.92982"
           xlink:href="#textext-534655b9-7"
           width="402"
           height="266" />
        <use
           id="use3644"
           y="146.72"
           x="243.35719"
           xlink:href="#textext-534655b9-2"
           width="402"
           height="266" />
      </g>
    </g>
  </g>
  <g
     id="g4479"
     transform="matrix(1.8234979,0,0,1.8234979,-124.86118,-39.896203)"
     ns0:preamble=""
     ns0:text="pantalla">
    <defs
       id="defs4481">
      <g
         id="g4483">
        <symbol
           id="textext-069dfb31-0"
           overflow="visible"
           style="overflow:visible">
          <path
             id="path4486"
             d=""
             style="stroke:none"
             inkscape:connector-curvature="0" />
        </symbol>
        <symbol
           id="textext-069dfb31-1"
           overflow="visible"
           style="overflow:visible">
          <path
             id="path4489"
             d="m 1.71875,-3.75 0,-0.65625 -1.4375,0.109375 0,0.3125 c 0.703125,0 0.78125,0.0625 0.78125,0.5 l 0,4.65625 C 1.0625,1.625 0.953125,1.625 0.28125,1.625 l 0,0.3125 C 0.625,1.921875 1.140625,1.90625 1.390625,1.90625 c 0.28125,0 0.78125,0.015625 1.125,0.03125 l 0,-0.3125 C 1.859375,1.625 1.75,1.625 1.75,1.171875 l 0,-1.765625 c 0.046875,0.171875 0.46875,0.703125 1.21875,0.703125 1.1875,0 2.21875,-0.984375 2.21875,-2.265625 0,-1.265625 -0.953125,-2.25 -2.078125,-2.25 -0.78125,0 -1.203125,0.4375 -1.390625,0.65625 z m 0.03125,2.609375 0,-2.21875 C 2.03125,-3.875 2.515625,-4.15625 3.03125,-4.15625 c 0.734375,0 1.328125,0.875 1.328125,2 0,1.203125 -0.6875,2.046875 -1.421875,2.046875 -0.40625,0 -0.78125,-0.203125 -1.046875,-0.609375 C 1.75,-0.921875 1.75,-0.9375 1.75,-1.140625 z m 0,0"
             style="stroke:none"
             inkscape:connector-curvature="0" />
        </symbol>
        <symbol
           id="textext-069dfb31-2"
           overflow="visible"
           style="overflow:visible">
          <path
             id="path4492"
             d="m 3.3125,-0.75 c 0.046875,0.390625 0.3125,0.8125 0.78125,0.8125 0.21875,0 0.828125,-0.140625 0.828125,-0.953125 l 0,-0.5625 -0.25,0 0,0.5625 c 0,0.578125 -0.25,0.640625 -0.359375,0.640625 -0.328125,0 -0.375,-0.453125 -0.375,-0.5 l 0,-1.984375 c 0,-0.421875 0,-0.8125 -0.359375,-1.1875 C 3.1875,-4.3125 2.6875,-4.46875 2.21875,-4.46875 c -0.828125,0 -1.515625,0.46875 -1.515625,1.125 0,0.296875 0.203125,0.46875 0.46875,0.46875 0.28125,0 0.453125,-0.203125 0.453125,-0.453125 0,-0.125 -0.046875,-0.453125 -0.515625,-0.453125 C 1.390625,-4.140625 1.875,-4.25 2.1875,-4.25 c 0.5,0 1.0625,0.390625 1.0625,1.28125 l 0,0.359375 c -0.515625,0.03125 -1.203125,0.0625 -1.828125,0.359375 -0.75,0.34375 -1,0.859375 -1,1.296875 0,0.8125 0.96875,1.0625 1.59375,1.0625 0.65625,0 1.109375,-0.40625 1.296875,-0.859375 z M 3.25,-2.390625 l 0,1 c 0,0.9375 -0.71875,1.28125 -1.171875,1.28125 -0.484375,0 -0.890625,-0.34375 -0.890625,-0.84375 0,-0.546875 0.421875,-1.375 2.0625,-1.4375 z m 0,0"
             style="stroke:none"
             inkscape:connector-curvature="0" />
        </symbol>
        <symbol
           id="textext-069dfb31-3"
           overflow="visible"
           style="overflow:visible">
          <path
             id="path4495"
             d="m 1.09375,-3.421875 0,2.671875 c 0,0.4375 -0.109375,0.4375 -0.78125,0.4375 l 0,0.3125 c 0.359375,-0.015625 0.859375,-0.03125 1.140625,-0.03125 0.25,0 0.765625,0.015625 1.109375,0.03125 l 0,-0.3125 c -0.671875,0 -0.78125,0 -0.78125,-0.4375 l 0,-1.84375 C 1.78125,-3.625 2.5,-4.1875 3.125,-4.1875 c 0.640625,0 0.75,0.53125 0.75,1.109375 l 0,2.328125 c 0,0.4375 -0.109375,0.4375 -0.78125,0.4375 l 0,0.3125 c 0.34375,-0.015625 0.859375,-0.03125 1.125,-0.03125 0.25,0 0.78125,0.015625 1.109375,0.03125 l 0,-0.3125 c -0.515625,0 -0.765625,0 -0.765625,-0.296875 l 0,-1.90625 c 0,-0.859375 0,-1.15625 -0.3125,-1.515625 -0.140625,-0.171875 -0.46875,-0.375 -1.046875,-0.375 C 2.46875,-4.40625 2,-3.984375 1.71875,-3.359375 l 0,-1.046875 -1.40625,0.109375 0,0.3125 c 0.703125,0 0.78125,0.0625 0.78125,0.5625 z m 0,0"
             style="stroke:none"
             inkscape:connector-curvature="0" />
        </symbol>
        <symbol
           id="textext-069dfb31-4"
           overflow="visible"
           style="overflow:visible">
          <path
             id="path4498"
             d="m 1.71875,-3.984375 1.4375,0 0,-0.3125 -1.4375,0 0,-1.828125 -0.25,0 c 0,0.8125 -0.296875,1.875 -1.28125,1.921875 l 0,0.21875 0.84375,0 0,2.75 c 0,1.21875 0.9375,1.34375 1.296875,1.34375 0.703125,0 0.984375,-0.703125 0.984375,-1.34375 l 0,-0.5625 -0.25,0 0,0.546875 c 0,0.734375 -0.296875,1.109375 -0.671875,1.109375 -0.671875,0 -0.671875,-0.90625 -0.671875,-1.078125 z m 0,0"
             style="stroke:none"
             inkscape:connector-curvature="0" />
        </symbol>
        <symbol
           id="textext-069dfb31-5"
           overflow="visible"
           style="overflow:visible">
          <path
             id="path4501"
             d="m 1.765625,-6.921875 -1.4375,0.109375 0,0.3125 c 0.703125,0 0.78125,0.0625 0.78125,0.5625 l 0,5.1875 c 0,0.4375 -0.109375,0.4375 -0.78125,0.4375 l 0,0.3125 C 0.65625,-0.015625 1.1875,-0.03125 1.4375,-0.03125 c 0.25,0 0.734375,0.015625 1.109375,0.03125 l 0,-0.3125 c -0.671875,0 -0.78125,0 -0.78125,-0.4375 z m 0,0"
             style="stroke:none"
             inkscape:connector-curvature="0" />
        </symbol>
      </g>
    </defs>
    <g
       id="textext-069dfb31-6">
      <g
         id="g4504"
         style="fill:#000000;fill-opacity:1">
        <use
           id="use4506"
           y="134.765"
           x="223.43201"
           xlink:href="#textext-069dfb31-1"
           width="402"
           height="266" />
        <use
           id="use4508"
           y="134.765"
           x="228.96722"
           xlink:href="#textext-069dfb31-2"
           width="402"
           height="266" />
        <use
           id="use4510"
           y="134.765"
           x="233.94852"
           xlink:href="#textext-069dfb31-3"
           width="402"
           height="266" />
      </g>
      <g
         id="g4512"
         style="fill:#000000;fill-opacity:1">
        <use
           id="use4514"
           y="134.765"
           x="239.20479"
           xlink:href="#textext-069dfb31-4"
           width="402"
           height="266" />
        <use
           id="use4516"
           y="134.765"
           x="243.07924"
           xlink:href="#textext-069dfb31-2"
           width="402"
           height="266" />
        <use
           id="use4518"
           y="134.765"
           x="248.06055"
           xlink:href="#textext-069dfb31-5"
           width="402"
           height="266" />
        <use
           id="use4520"
           y="134.765"
           x="250.82816"
           xlink:href="#textext-069dfb31-5"
           width="402"
           height="266" />
        <use
           id="use4522"
           y="134.765"
           x="253.59576"
           xlink:href="#textext-069dfb31-2"
           width="402"
           height="266" />
      </g>
    </g>
  </g>
</svg>
